<svg width="444" height="278" viewBox="0 0 444 278" fill="none" xmlns="http://www.w3.org/2000/svg">
<g clip-path="url(#clip0_179_1782)">
<rect width="444" height="277.5" fill="#0A0A0A"/>
<g filter="url(#filter0_f_179_1782)">
<circle cx="221.5" cy="138.5" r="83.5" fill="#00D8FF" fill-opacity="0.1"/>
</g>
<path d="M180.283 157.621C165.048 131.255 154.675 104.563 150.345 82.4106C145.133 55.7195 148.818 35.3128 159.314 29.2255C170.251 22.8803 190.943 30.2401 212.652 49.5555C229.067 64.1583 245.921 86.1245 260.385 111.157C275.213 136.823 286.327 162.826 290.65 184.708C296.121 212.4 291.693 233.558 280.964 239.781C270.555 245.82 251.505 239.427 231.192 221.912C214.03 207.114 195.669 184.25 180.283 157.621Z" stroke="#00D8FF" stroke-opacity="0.14" stroke-width="2.56"/>
<path d="M221.503 91C253.188 91 282.624 95.5258 304.818 103.133C331.559 112.297 348 126.188 348 138.766C348 151.874 330.576 166.631 301.859 176.102C280.149 183.262 251.58 187 221.503 187C190.664 187 161.462 183.492 139.506 176.023C111.73 166.572 95 151.625 95 138.766C95 126.29 110.699 112.506 137.064 103.356C159.34 95.624 189.502 91 221.497 91H221.503Z" stroke="#00D8FF" stroke-opacity="0.14" stroke-width="2.56"/>
<path d="M180.395 111.412C195.629 85.0346 213.569 62.7131 230.609 47.9066C251.138 30.0646 270.676 23.0771 281.209 29.1419C292.185 35.4633 296.167 57.0871 290.294 85.5598C285.856 107.085 275.249 132.669 260.788 157.709C245.962 183.381 228.986 205.999 212.179 220.67C190.911 239.235 170.349 245.954 159.581 239.753C149.133 233.74 145.138 214.021 150.151 187.66C154.386 165.386 165.014 138.047 180.391 111.412H180.395Z" stroke="#00D8FF" stroke-opacity="0.14" stroke-width="2.56"/>
<g clip-path="url(#clip1_179_1782)">
<path d="M250.453 84H192.547C178.438 84 167 95.4377 167 109.547V167.453C167 181.562 178.438 193 192.547 193H250.453C264.562 193 276 181.562 276 167.453V109.547C276 95.4377 264.562 84 250.453 84Z" fill="#242938"/>
<path d="M221.5 146.569C225.888 146.569 229.444 143.012 229.444 138.626C229.444 134.239 225.888 130.682 221.5 130.682C217.113 130.682 213.557 134.239 213.557 138.626C213.557 143.012 217.114 146.569 221.5 146.569Z" fill="#00D8FF"/>
<path d="M221.501 122.475C232.166 122.475 242.073 124.005 249.544 126.577C258.544 129.676 264.078 134.372 264.078 138.626C264.078 143.058 258.213 148.047 248.548 151.25C241.24 153.671 231.625 154.934 221.501 154.934C211.121 154.934 201.292 153.748 193.902 151.223C184.553 148.027 178.922 142.973 178.922 138.626C178.922 134.407 184.206 129.746 193.08 126.653C200.578 124.038 210.73 122.475 221.499 122.475H221.501Z" stroke="#00D8FF" stroke-width="2.56"/>
<path d="M207.441 130.597C212.769 121.358 219.044 113.54 225.004 108.354C232.185 102.105 239.018 99.6572 242.702 101.781C246.541 103.996 247.934 111.569 245.88 121.542C244.328 129.081 240.618 138.042 235.56 146.813C230.374 155.804 224.437 163.726 218.558 168.865C211.119 175.367 203.927 177.72 200.161 175.548C196.507 173.443 195.109 166.536 196.863 157.303C198.344 149.501 202.061 139.926 207.439 130.597H207.441Z" stroke="#00D8FF" stroke-width="2.56"/>
<path d="M207.454 146.836C202.111 137.608 198.473 128.265 196.955 120.512C195.127 111.17 196.419 104.027 200.1 101.896C203.936 99.6756 211.193 102.252 218.806 109.012C224.563 114.123 230.474 121.812 235.547 130.573C240.747 139.556 244.645 148.657 246.161 156.316C248.079 166.009 246.527 173.414 242.764 175.592C239.113 177.706 232.432 175.468 225.309 169.338C219.29 164.159 212.85 156.156 207.454 146.836Z" stroke="#00D8FF" stroke-width="2.56"/>
</g>
<path d="M20.288 -11.336H17.728C17.6853 -8.69067 17.6427 -6.04533 17.6 -3.4C17.6 -0.797335 17.6 1.69866 17.6 4.088H20.032C22.1653 4.088 23.8293 3.72533 25.024 3C26.2187 2.27467 27.072 1.31467 27.584 0.119999C28.096 -1.07467 28.352 -2.35467 28.352 -3.72C28.352 -8.79734 25.664 -11.336 20.288 -11.336ZM2.112 -11.592V-15.048H22.912C27.9467 -15.048 31.808 -14.1093 34.496 -12.232C37.2267 -10.3547 38.592 -7.752 38.592 -4.424C38.592 -3.016 38.2293 -1.608 37.504 -0.200001C36.7787 1.16533 35.584 2.38133 33.92 3.448C32.256 4.472 29.9947 5.21867 27.136 5.688C29.568 5.98667 31.4667 6.584 32.832 7.48C34.1973 8.33333 35.2213 9.464 35.904 10.872C36.5867 12.2373 37.0773 13.9227 37.376 15.928L38.592 23.032L43.456 23.544V27C42.432 27.2133 41.5787 27.384 40.896 27.512C40.2133 27.6827 39.5307 27.7893 38.848 27.832C38.208 27.8747 37.3973 27.896 36.416 27.896C33.6853 27.896 31.5307 27.4267 29.952 26.488C28.416 25.5493 27.4773 23.8427 27.136 21.368L25.984 13.944C25.6853 11.8107 25.0667 10.232 24.128 9.208C23.232 8.184 21.824 7.672 19.904 7.672H17.6C17.6 10.4027 17.6 13.0267 17.6 15.544C17.6427 18.0613 17.6853 20.5573 17.728 23.032L22.72 23.544V27H2.112V23.544L6.912 23.032C6.99733 20.4293 7.04 17.8053 7.04 15.16C7.04 12.5147 7.04 9.848 7.04 7.16V4.792C7.04 2.14667 7.04 -0.498667 7.04 -3.144C7.04 -5.832 6.99733 -8.47734 6.912 -11.08L2.112 -11.592ZM60.289 -1.608C59.0943 -1.608 57.985 -0.861335 56.961 0.631998C55.9797 2.08267 55.425 4.77067 55.297 8.696H60.737C62.273 8.696 63.297 8.39733 63.809 7.8C64.3637 7.16 64.641 6.11467 64.641 4.664C64.641 2.53067 64.2143 0.951999 63.361 -0.0720005C62.5077 -1.096 61.4837 -1.608 60.289 -1.608ZM60.417 27.96C57.3023 27.96 54.5503 27.32 52.161 26.04C49.7717 24.7173 47.8943 22.84 46.529 20.408C45.1637 17.9333 44.481 14.9893 44.481 11.576C44.481 7.992 45.2703 4.984 46.849 2.552C48.4703 0.0773315 50.5397 -1.77867 53.057 -3.016C55.5743 -4.296 58.1983 -4.936 60.929 -4.936C63.745 -4.936 66.1343 -4.33867 68.097 -3.144C70.1023 -1.94933 71.617 -0.328001 72.641 1.72C73.665 3.72533 74.177 6.02933 74.177 8.632C74.177 9.86933 74.049 11 73.793 12.024H55.297C55.5103 15.3947 56.4277 17.8907 58.049 19.512C59.713 21.0907 61.6543 21.88 63.873 21.88C65.6223 21.88 67.1157 21.56 68.353 20.92C69.5903 20.2373 70.6783 19.4053 71.617 18.424L73.857 20.472C72.5343 22.9893 70.7423 24.8667 68.481 26.104C66.2197 27.3413 63.5317 27.96 60.417 27.96ZM102.373 27.896C98.6605 27.896 96.3138 26.36 95.3325 23.288C93.9672 24.7387 92.6445 25.8907 91.3645 26.744C90.1272 27.5547 88.3992 27.96 86.1805 27.96C83.7058 27.96 81.6792 27.256 80.1005 25.848C78.5645 24.44 77.7965 22.4133 77.7965 19.768C77.7965 18.232 78.1378 16.8453 78.8205 15.608C79.5032 14.3707 80.7405 13.2187 82.5325 12.152C84.3245 11.0853 86.8632 10.0827 90.1485 9.144C90.7885 8.93067 91.5352 8.71733 92.3885 8.504C93.2418 8.29067 94.1165 8.07733 95.0125 7.864V5.752C95.0125 2.89333 94.6498 0.951999 93.9245 -0.0720005C93.2418 -1.096 91.8765 -1.608 89.8285 -1.608C89.5298 -1.608 89.2525 -1.608 88.9965 -1.608C88.7405 -1.608 88.4418 -1.58667 88.1005 -1.544L87.7805 1.272C87.7378 3.36267 87.2472 4.87733 86.3085 5.816C85.4125 6.75467 84.3458 7.224 83.1085 7.224C80.7618 7.224 79.3325 6.15733 78.8205 4.024C78.9912 1.37866 80.3352 -0.776002 82.8525 -2.44C85.3698 -4.104 88.9325 -4.936 93.5405 -4.936C97.6365 -4.936 100.559 -3.99733 102.309 -2.12C104.101 -0.242668 104.997 2.85067 104.997 7.16V21.496C104.997 22.7333 105.466 23.352 106.405 23.352C106.746 23.352 107.066 23.2667 107.365 23.096C107.663 22.8827 107.983 22.4987 108.325 21.944L110.053 23.096C109.285 24.8027 108.282 26.04 107.045 26.808C105.85 27.5333 104.293 27.896 102.373 27.896ZM87.2685 18.104C87.2685 19.6827 87.6312 20.856 88.3565 21.624C89.1245 22.392 90.0418 22.776 91.1085 22.776C91.5778 22.776 92.0685 22.6693 92.5805 22.456C93.0925 22.2427 93.9032 21.752 95.0125 20.984V10.616C94.4578 10.7867 93.9032 10.9787 93.3485 11.192C92.8365 11.3627 92.3885 11.5333 92.0045 11.704C90.5538 12.3013 89.4018 13.1547 88.5485 14.264C87.6952 15.3307 87.2685 16.6107 87.2685 18.104ZM127.541 27.96C124.639 27.96 121.973 27.3627 119.541 26.168C117.151 24.9307 115.231 23.096 113.781 20.664C112.33 18.232 111.605 15.224 111.605 11.64C111.605 8.14133 112.373 5.15466 113.909 2.68C115.487 0.205332 117.578 -1.672 120.181 -2.952C122.826 -4.27467 125.727 -4.936 128.885 -4.936C131.146 -4.936 133.151 -4.50933 134.901 -3.656C136.65 -2.80267 138.037 -1.672 139.061 -0.264002C140.127 1.144 140.725 2.70133 140.853 4.408C140.17 6.62667 138.719 7.736 136.501 7.736C135.263 7.736 134.175 7.288 133.237 6.392C132.298 5.496 131.765 3.91733 131.637 1.656L131.189 -1.544C131.018 -1.58667 130.826 -1.608 130.613 -1.608C130.399 -1.608 130.186 -1.608 129.973 -1.608C128.778 -1.608 127.583 -1.20267 126.389 -0.392002C125.194 0.418666 124.213 1.69867 123.445 3.448C122.677 5.19733 122.293 7.52267 122.293 10.424C122.293 14.0933 123.103 16.9307 124.725 18.936C126.389 20.8987 128.565 21.88 131.253 21.88C132.789 21.88 134.133 21.56 135.285 20.92C136.437 20.2373 137.482 19.3627 138.421 18.296L140.661 20.28C139.423 22.8827 137.674 24.824 135.413 26.104C133.194 27.3413 130.57 27.96 127.541 27.96ZM156.14 27.96C153.281 27.96 151.041 27.2773 149.42 25.912C147.798 24.504 146.988 22.2213 146.988 19.064C146.988 17.9547 146.988 16.9307 146.988 15.992C147.03 15.0107 147.052 13.9013 147.052 12.664V0.439999H142.892V-3.336L147.628 -3.976L150.828 -12.936H157.356L157.228 -3.912H163.948V0.439999H157.228V18.36C157.228 19.8533 157.526 20.9627 158.124 21.688C158.764 22.3707 159.553 22.712 160.492 22.712C161.601 22.712 162.753 22.2427 163.948 21.304L165.548 22.84C164.694 24.4613 163.5 25.72 161.964 26.616C160.47 27.512 158.529 27.96 156.14 27.96ZM180.924 -11.592V-15.048H214.013L214.461 -4.04H209.149L207.869 -11.464H196.733C196.69 -9.032 196.647 -6.57867 196.605 -4.104C196.605 -1.62934 196.605 0.866665 196.605 3.384H203.709L204.477 -1.608H208.189V12.792H204.477L203.645 7.16H196.605C196.605 10.0187 196.605 12.7493 196.605 15.352C196.647 17.912 196.69 20.4507 196.733 22.968L202.429 23.544V27H180.924V23.544L185.725 23.032C185.81 20.4293 185.853 17.8053 185.853 15.16C185.853 12.5147 185.853 9.848 185.853 7.16V4.792C185.853 2.14667 185.853 -0.498667 185.853 -3.144C185.853 -5.832 185.81 -8.47734 185.725 -11.08L180.924 -11.592ZM230.612 27.96C227.284 27.96 224.404 27.2773 221.972 25.912C219.54 24.504 217.663 22.5627 216.34 20.088C215.017 17.5707 214.356 14.6693 214.356 11.384C214.356 8.09867 215.06 5.24 216.468 2.808C217.919 0.375998 219.881 -1.52267 222.356 -2.888C224.831 -4.25333 227.583 -4.936 230.612 -4.936C233.641 -4.936 236.372 -4.27467 238.804 -2.952C241.279 -1.62933 243.241 0.269333 244.692 2.744C246.143 5.176 246.868 8.056 246.868 11.384C246.868 14.712 246.207 17.6133 244.884 20.088C243.561 22.5627 241.684 24.504 239.252 25.912C236.82 27.2773 233.94 27.96 230.612 27.96ZM230.612 24.632C232.404 24.632 233.748 23.5867 234.644 21.496C235.54 19.4053 235.988 16.0987 235.988 11.576C235.988 7.01067 235.54 3.68267 234.644 1.592C233.748 -0.498667 232.404 -1.544 230.612 -1.544C228.777 -1.544 227.412 -0.498667 226.516 1.592C225.62 3.68267 225.172 7.01067 225.172 11.576C225.172 16.0987 225.62 19.4053 226.516 21.496C227.412 23.5867 228.777 24.632 230.612 24.632ZM250.416 27V23.992L253.936 23.288C253.978 21.7093 254 20.024 254 18.232C254 16.44 254 14.8827 254 13.56V9.784C254 8.58933 253.978 7.608 253.936 6.84C253.936 6.072 253.914 5.368 253.872 4.728C253.872 4.04533 253.85 3.27733 253.808 2.424L249.904 1.848V-0.648001L262.512 -4.936L263.664 -4.232L264.24 3.32C265.136 0.589333 266.394 -1.45867 268.016 -2.824C269.637 -4.232 271.237 -4.936 272.816 -4.936C274.224 -4.936 275.44 -4.53067 276.464 -3.72C277.488 -2.952 278.128 -1.77867 278.384 -0.200001C278.341 1.464 277.893 2.76533 277.04 3.704C276.186 4.6 275.12 5.048 273.84 5.048C272.048 5.048 270.405 4.04533 268.912 2.04L268.528 1.528C267.589 2.424 266.714 3.55467 265.904 4.92C265.136 6.28533 264.581 7.71467 264.24 9.208V13.56C264.24 14.8827 264.24 16.3973 264.24 18.104C264.24 19.8107 264.261 21.4107 264.304 22.904L269.36 23.992V27H250.416ZM318.913 -11.784V-15.048H332.801V-11.592L328.001 -10.824L314.817 27.128H308.609L294.849 -11.208L291.137 -11.592V-15.048H311.745V-11.784L306.305 -11.08L315.073 15.288L323.905 -10.952L318.913 -11.784ZM353.073 27.704L352.689 22.328C351.324 24.12 349.766 25.5067 348.017 26.488C346.268 27.4693 344.369 27.96 342.321 27.96C339.59 27.96 337.393 27.1067 335.729 25.4C334.065 23.6507 333.254 20.664 333.297 16.44L333.553 0.823999L329.841 -0.00800133V-2.696L342.897 -4.552L343.921 -3.848L343.601 5.176V16.504C343.601 18.4667 343.9 19.832 344.497 20.6C345.137 21.368 345.99 21.752 347.057 21.752C347.953 21.752 348.87 21.4747 349.809 20.92C350.79 20.3653 351.708 19.6827 352.561 18.872L352.817 0.759998L349.297 -0.00800133V-2.504L362.033 -4.552L363.057 -3.848L362.865 5.176V23.352L366.193 24.056V27.064L353.073 27.704ZM384.977 -1.608C383.782 -1.608 382.673 -0.861335 381.649 0.631998C380.667 2.08267 380.113 4.77067 379.985 8.696H385.425C386.961 8.696 387.985 8.39733 388.497 7.8C389.051 7.16 389.329 6.11467 389.329 4.664C389.329 2.53067 388.902 0.951999 388.049 -0.0720005C387.195 -1.096 386.171 -1.608 384.977 -1.608ZM385.105 27.96C381.99 27.96 379.238 27.32 376.849 26.04C374.459 24.7173 372.582 22.84 371.217 20.408C369.851 17.9333 369.169 14.9893 369.169 11.576C369.169 7.992 369.958 4.984 371.536 2.552C373.158 0.0773315 375.227 -1.77867 377.745 -3.016C380.262 -4.296 382.886 -4.936 385.617 -4.936C388.433 -4.936 390.822 -4.33867 392.785 -3.144C394.79 -1.94933 396.305 -0.328001 397.329 1.72C398.353 3.72533 398.865 6.02933 398.865 8.632C398.865 9.86933 398.737 11 398.481 12.024H379.985C380.198 15.3947 381.115 17.8907 382.737 19.512C384.401 21.0907 386.342 21.88 388.561 21.88C390.31 21.88 391.803 21.56 393.041 20.92C394.278 20.2373 395.366 19.4053 396.305 18.424L398.545 20.472C397.222 22.9893 395.43 24.8667 393.169 26.104C390.907 27.3413 388.219 27.96 385.105 27.96ZM432.167 6.904C432.167 9.67733 432.167 12.4293 432.167 15.16C432.21 17.8907 432.252 20.6 432.295 23.288H434.407C438.076 23.288 440.956 21.7947 443.047 18.808C445.18 15.7787 446.247 11.4907 446.247 5.944C446.247 0.311998 445.18 -3.976 443.047 -6.92C440.956 -9.864 438.098 -11.336 434.471 -11.336H432.295C432.252 -8.69067 432.21 -6.024 432.167 -3.336C432.167 -0.648001 432.167 2.06133 432.167 4.792V6.904ZM416.487 -11.592V-15.048H435.495C440.06 -15.048 443.964 -14.1947 447.207 -12.488C450.45 -10.824 452.946 -8.43467 454.695 -5.32C456.444 -2.20533 457.319 1.528 457.319 5.88C457.319 10.3173 456.38 14.1147 454.503 17.272C452.626 20.4293 449.959 22.84 446.503 24.504C443.09 26.168 439.036 27 434.343 27H416.487V23.544L421.287 23.032C421.372 20.4293 421.415 17.784 421.415 15.096C421.415 12.408 421.415 9.69867 421.415 6.968V4.792C421.415 2.14667 421.415 -0.498667 421.415 -3.144C421.415 -5.832 421.372 -8.47734 421.287 -11.08L416.487 -11.592ZM477.164 -1.608C475.969 -1.608 474.86 -0.861335 473.836 0.631998C472.855 2.08267 472.3 4.77067 472.172 8.696H477.612C479.148 8.696 480.172 8.39733 480.684 7.8C481.239 7.16 481.516 6.11467 481.516 4.664C481.516 2.53067 481.089 0.951999 480.236 -0.0720005C479.383 -1.096 478.359 -1.608 477.164 -1.608ZM477.292 27.96C474.177 27.96 471.425 27.32 469.036 26.04C466.647 24.7173 464.769 22.84 463.404 20.408C462.039 17.9333 461.356 14.9893 461.356 11.576C461.356 7.992 462.145 4.984 463.724 2.552C465.345 0.0773315 467.415 -1.77867 469.932 -3.016C472.449 -4.296 475.073 -4.936 477.804 -4.936C480.62 -4.936 483.009 -4.33867 484.972 -3.144C486.977 -1.94933 488.492 -0.328001 489.516 1.72C490.54 3.72533 491.052 6.02933 491.052 8.632C491.052 9.86933 490.924 11 490.668 12.024H472.172C472.385 15.3947 473.303 17.8907 474.924 19.512C476.588 21.0907 478.529 21.88 480.748 21.88C482.497 21.88 483.991 21.56 485.228 20.92C486.465 20.2373 487.553 19.4053 488.492 18.424L490.732 20.472C489.409 22.9893 487.617 24.8667 485.356 26.104C483.095 27.3413 480.407 27.96 477.292 27.96ZM513.936 -1.096V-3.912H526.032V-1.096L522.32 -0.392002L511.76 27.128H506.896L495.376 -0.456001L492.239 -1.096V-3.912H510.416V-1.096L506.384 -0.264002L512.4 16.12L517.968 -0.328001L513.936 -1.096Z" fill="#00D8FF"/>
<path d="M-280.712 249.664H-283.272C-283.315 252.309 -283.357 254.955 -283.4 257.6C-283.4 260.203 -283.4 262.699 -283.4 265.088H-280.968C-278.835 265.088 -277.171 264.725 -275.976 264C-274.781 263.275 -273.928 262.315 -273.416 261.12C-272.904 259.925 -272.648 258.645 -272.648 257.28C-272.648 252.203 -275.336 249.664 -280.712 249.664ZM-298.888 249.408V245.952H-278.088C-273.053 245.952 -269.192 246.891 -266.504 248.768C-263.773 250.645 -262.408 253.248 -262.408 256.576C-262.408 257.984 -262.771 259.392 -263.496 260.8C-264.221 262.165 -265.416 263.381 -267.08 264.448C-268.744 265.472 -271.005 266.219 -273.864 266.688C-271.432 266.987 -269.533 267.584 -268.168 268.48C-266.803 269.333 -265.779 270.464 -265.096 271.872C-264.413 273.237 -263.923 274.923 -263.624 276.928L-262.408 284.032L-257.544 284.544V288C-258.568 288.213 -259.421 288.384 -260.104 288.512C-260.787 288.683 -261.469 288.789 -262.152 288.832C-262.792 288.875 -263.603 288.896 -264.584 288.896C-267.315 288.896 -269.469 288.427 -271.048 287.488C-272.584 286.549 -273.523 284.843 -273.864 282.368L-275.016 274.944C-275.315 272.811 -275.933 271.232 -276.872 270.208C-277.768 269.184 -279.176 268.672 -281.096 268.672H-283.4C-283.4 271.403 -283.4 274.027 -283.4 276.544C-283.357 279.061 -283.315 281.557 -283.272 284.032L-278.28 284.544V288H-298.888V284.544L-294.088 284.032C-294.003 281.429 -293.96 278.805 -293.96 276.16C-293.96 273.515 -293.96 270.848 -293.96 268.16V265.792C-293.96 263.147 -293.96 260.501 -293.96 257.856C-293.96 255.168 -294.003 252.523 -294.088 249.92L-298.888 249.408ZM-240.711 259.392C-241.906 259.392 -243.015 260.139 -244.039 261.632C-245.02 263.083 -245.575 265.771 -245.703 269.696H-240.263C-238.727 269.696 -237.703 269.397 -237.191 268.8C-236.636 268.16 -236.359 267.115 -236.359 265.664C-236.359 263.531 -236.786 261.952 -237.639 260.928C-238.492 259.904 -239.516 259.392 -240.711 259.392ZM-240.583 288.96C-243.698 288.96 -246.45 288.32 -248.839 287.04C-251.228 285.717 -253.106 283.84 -254.471 281.408C-255.836 278.933 -256.519 275.989 -256.519 272.576C-256.519 268.992 -255.73 265.984 -254.151 263.552C-252.53 261.077 -250.46 259.221 -247.943 257.984C-245.426 256.704 -242.802 256.064 -240.071 256.064C-237.255 256.064 -234.866 256.661 -232.903 257.856C-230.898 259.051 -229.383 260.672 -228.359 262.72C-227.335 264.725 -226.823 267.029 -226.823 269.632C-226.823 270.869 -226.951 272 -227.207 273.024H-245.703C-245.49 276.395 -244.572 278.891 -242.951 280.512C-241.287 282.091 -239.346 282.88 -237.127 282.88C-235.378 282.88 -233.884 282.56 -232.647 281.92C-231.41 281.237 -230.322 280.405 -229.383 279.424L-227.143 281.472C-228.466 283.989 -230.258 285.867 -232.519 287.104C-234.78 288.341 -237.468 288.96 -240.583 288.96ZM-198.627 288.896C-202.339 288.896 -204.686 287.36 -205.667 284.288C-207.033 285.739 -208.355 286.891 -209.635 287.744C-210.873 288.555 -212.601 288.96 -214.819 288.96C-217.294 288.96 -219.321 288.256 -220.899 286.848C-222.435 285.44 -223.203 283.413 -223.203 280.768C-223.203 279.232 -222.862 277.845 -222.179 276.608C-221.497 275.371 -220.259 274.219 -218.467 273.152C-216.675 272.085 -214.137 271.083 -210.851 270.144C-210.211 269.931 -209.465 269.717 -208.611 269.504C-207.758 269.291 -206.883 269.077 -205.987 268.864V266.752C-205.987 263.893 -206.35 261.952 -207.075 260.928C-207.758 259.904 -209.123 259.392 -211.171 259.392C-211.47 259.392 -211.747 259.392 -212.003 259.392C-212.259 259.392 -212.558 259.413 -212.899 259.456L-213.219 262.272C-213.262 264.363 -213.753 265.877 -214.691 266.816C-215.587 267.755 -216.654 268.224 -217.891 268.224C-220.238 268.224 -221.667 267.157 -222.179 265.024C-222.009 262.379 -220.665 260.224 -218.147 258.56C-215.63 256.896 -212.067 256.064 -207.459 256.064C-203.363 256.064 -200.441 257.003 -198.691 258.88C-196.899 260.757 -196.003 263.851 -196.003 268.16V282.496C-196.003 283.733 -195.534 284.352 -194.595 284.352C-194.254 284.352 -193.934 284.267 -193.635 284.096C-193.337 283.883 -193.017 283.499 -192.675 282.944L-190.947 284.096C-191.715 285.803 -192.718 287.04 -193.955 287.808C-195.15 288.533 -196.707 288.896 -198.627 288.896ZM-213.731 279.104C-213.731 280.683 -213.369 281.856 -212.643 282.624C-211.875 283.392 -210.958 283.776 -209.891 283.776C-209.422 283.776 -208.931 283.669 -208.419 283.456C-207.907 283.243 -207.097 282.752 -205.987 281.984V271.616C-206.542 271.787 -207.097 271.979 -207.651 272.192C-208.163 272.363 -208.611 272.533 -208.995 272.704C-210.446 273.301 -211.598 274.155 -212.451 275.264C-213.305 276.331 -213.731 277.611 -213.731 279.104ZM-173.459 288.96C-176.361 288.96 -179.027 288.363 -181.459 287.168C-183.849 285.931 -185.769 284.096 -187.219 281.664C-188.67 279.232 -189.395 276.224 -189.395 272.64C-189.395 269.141 -188.627 266.155 -187.091 263.68C-185.513 261.205 -183.422 259.328 -180.819 258.048C-178.174 256.725 -175.273 256.064 -172.115 256.064C-169.854 256.064 -167.849 256.491 -166.099 257.344C-164.35 258.197 -162.963 259.328 -161.939 260.736C-160.873 262.144 -160.275 263.701 -160.147 265.408C-160.83 267.627 -162.281 268.736 -164.499 268.736C-165.737 268.736 -166.825 268.288 -167.763 267.392C-168.702 266.496 -169.235 264.917 -169.363 262.656L-169.811 259.456C-169.982 259.413 -170.174 259.392 -170.387 259.392C-170.601 259.392 -170.814 259.392 -171.027 259.392C-172.222 259.392 -173.417 259.797 -174.611 260.608C-175.806 261.419 -176.787 262.699 -177.555 264.448C-178.323 266.197 -178.707 268.523 -178.707 271.424C-178.707 275.093 -177.897 277.931 -176.275 279.936C-174.611 281.899 -172.435 282.88 -169.747 282.88C-168.211 282.88 -166.867 282.56 -165.715 281.92C-164.563 281.237 -163.518 280.363 -162.579 279.296L-160.339 281.28C-161.577 283.883 -163.326 285.824 -165.587 287.104C-167.806 288.341 -170.43 288.96 -173.459 288.96ZM-144.86 288.96C-147.719 288.96 -149.959 288.277 -151.58 286.912C-153.202 285.504 -154.012 283.221 -154.012 280.064C-154.012 278.955 -154.012 277.931 -154.012 276.992C-153.97 276.011 -153.948 274.901 -153.948 273.664V261.44H-158.108V257.664L-153.372 257.024L-150.172 248.064H-143.644L-143.772 257.088H-137.052V261.44H-143.772V279.36C-143.772 280.853 -143.474 281.963 -142.876 282.688C-142.236 283.371 -141.447 283.712 -140.508 283.712C-139.399 283.712 -138.247 283.243 -137.052 282.304L-135.452 283.84C-136.306 285.461 -137.5 286.72 -139.036 287.616C-140.53 288.512 -142.471 288.96 -144.86 288.96ZM-120.076 249.408V245.952H-86.9875L-86.5395 256.96H-91.8515L-93.1315 249.536H-104.267C-104.31 251.968 -104.353 254.421 -104.395 256.896C-104.395 259.371 -104.395 261.867 -104.395 264.384H-97.2915L-96.5235 259.392H-92.8115V273.792H-96.5235L-97.3555 268.16H-104.395C-104.395 271.019 -104.395 273.749 -104.395 276.352C-104.353 278.912 -104.31 281.451 -104.267 283.968L-98.5715 284.544V288H-120.076V284.544L-115.275 284.032C-115.19 281.429 -115.147 278.805 -115.147 276.16C-115.147 273.515 -115.147 270.848 -115.147 268.16V265.792C-115.147 263.147 -115.147 260.501 -115.147 257.856C-115.147 255.168 -115.19 252.523 -115.275 249.92L-120.076 249.408ZM-70.388 288.96C-73.716 288.96 -76.596 288.277 -79.028 286.912C-81.46 285.504 -83.3373 283.563 -84.66 281.088C-85.9827 278.571 -86.644 275.669 -86.644 272.384C-86.644 269.099 -85.94 266.24 -84.532 263.808C-83.0813 261.376 -81.1187 259.477 -78.644 258.112C-76.1693 256.747 -73.4173 256.064 -70.388 256.064C-67.3587 256.064 -64.628 256.725 -62.196 258.048C-59.7213 259.371 -57.7587 261.269 -56.308 263.744C-54.8573 266.176 -54.132 269.056 -54.132 272.384C-54.132 275.712 -54.7933 278.613 -56.116 281.088C-57.4387 283.563 -59.316 285.504 -61.748 286.912C-64.18 288.277 -67.06 288.96 -70.388 288.96ZM-70.388 285.632C-68.596 285.632 -67.252 284.587 -66.356 282.496C-65.46 280.405 -65.012 277.099 -65.012 272.576C-65.012 268.011 -65.46 264.683 -66.356 262.592C-67.252 260.501 -68.596 259.456 -70.388 259.456C-72.2227 259.456 -73.588 260.501 -74.484 262.592C-75.38 264.683 -75.828 268.011 -75.828 272.576C-75.828 277.099 -75.38 280.405 -74.484 282.496C-73.588 284.587 -72.2227 285.632 -70.388 285.632ZM-50.5845 288V284.992L-47.0645 284.288C-47.0218 282.709 -47.0005 281.024 -47.0005 279.232C-47.0005 277.44 -47.0005 275.883 -47.0005 274.56V270.784C-47.0005 269.589 -47.0218 268.608 -47.0645 267.84C-47.0645 267.072 -47.0858 266.368 -47.1285 265.728C-47.1285 265.045 -47.1498 264.277 -47.1925 263.424L-51.0965 262.848V260.352L-38.4885 256.064L-37.3365 256.768L-36.7605 264.32C-35.8645 261.589 -34.6058 259.541 -32.9845 258.176C-31.3632 256.768 -29.7632 256.064 -28.1845 256.064C-26.7765 256.064 -25.5605 256.469 -24.5365 257.28C-23.5125 258.048 -22.8725 259.221 -22.6165 260.8C-22.6592 262.464 -23.1072 263.765 -23.9605 264.704C-24.8138 265.6 -25.8805 266.048 -27.1605 266.048C-28.9525 266.048 -30.5952 265.045 -32.0885 263.04L-32.4725 262.528C-33.4112 263.424 -34.2858 264.555 -35.0965 265.92C-35.8645 267.285 -36.4192 268.715 -36.7605 270.208V274.56C-36.7605 275.883 -36.7605 277.397 -36.7605 279.104C-36.7605 280.811 -36.7392 282.411 -36.6965 283.904L-31.6405 284.992V288H-50.5845ZM17.913 249.216V245.952H31.801V249.408L27.001 250.176L13.817 288.128H7.609L-6.151 249.792L-9.863 249.408V245.952H10.745V249.216L5.305 249.92L14.073 276.288L22.905 250.048L17.913 249.216ZM52.073 288.704L51.689 283.328C50.3237 285.12 48.7663 286.507 47.017 287.488C45.2677 288.469 43.369 288.96 41.321 288.96C38.5903 288.96 36.393 288.107 34.729 286.4C33.065 284.651 32.2543 281.664 32.297 277.44L32.553 261.824L28.841 260.992V258.304L41.897 256.448L42.921 257.152L42.601 266.176V277.504C42.601 279.467 42.8997 280.832 43.497 281.6C44.137 282.368 44.9903 282.752 46.057 282.752C46.953 282.752 47.8703 282.475 48.809 281.92C49.7903 281.365 50.7077 280.683 51.561 279.872L51.817 261.76L48.297 260.992V258.496L61.033 256.448L62.057 257.152L61.865 266.176V284.352L65.193 285.056V288.064L52.073 288.704ZM83.9765 259.392C82.7818 259.392 81.6725 260.139 80.6485 261.632C79.6672 263.083 79.1125 265.771 78.9845 269.696H84.4245C85.9605 269.696 86.9845 269.397 87.4965 268.8C88.0512 268.16 88.3285 267.115 88.3285 265.664C88.3285 263.531 87.9018 261.952 87.0485 260.928C86.1952 259.904 85.1712 259.392 83.9765 259.392ZM84.1045 288.96C80.9898 288.96 78.2378 288.32 75.8485 287.04C73.4592 285.717 71.5818 283.84 70.2165 281.408C68.8512 278.933 68.1685 275.989 68.1685 272.576C68.1685 268.992 68.9578 265.984 70.5365 263.552C72.1578 261.077 74.2272 259.221 76.7445 257.984C79.2618 256.704 81.8858 256.064 84.6165 256.064C87.4325 256.064 89.8218 256.661 91.7845 257.856C93.7898 259.051 95.3045 260.672 96.3285 262.72C97.3525 264.725 97.8645 267.029 97.8645 269.632C97.8645 270.869 97.7365 272 97.4805 273.024H78.9845C79.1978 276.395 80.1152 278.891 81.7365 280.512C83.4005 282.091 85.3418 282.88 87.5605 282.88C89.3098 282.88 90.8032 282.56 92.0405 281.92C93.2778 281.237 94.3658 280.405 95.3045 279.424L97.5445 281.472C96.2218 283.989 94.4298 285.867 92.1685 287.104C89.9072 288.341 87.2192 288.96 84.1045 288.96ZM131.167 267.904C131.167 270.677 131.167 273.429 131.167 276.16C131.21 278.891 131.252 281.6 131.295 284.288H133.407C137.076 284.288 139.956 282.795 142.047 279.808C144.18 276.779 145.247 272.491 145.247 266.944C145.247 261.312 144.18 257.024 142.047 254.08C139.956 251.136 137.098 249.664 133.471 249.664H131.295C131.252 252.309 131.21 254.976 131.167 257.664C131.167 260.352 131.167 263.061 131.167 265.792V267.904ZM115.487 249.408V245.952H134.495C139.06 245.952 142.964 246.805 146.207 248.512C149.45 250.176 151.946 252.565 153.695 255.68C155.444 258.795 156.319 262.528 156.319 266.88C156.319 271.317 155.38 275.115 153.503 278.272C151.626 281.429 148.959 283.84 145.503 285.504C142.09 287.168 138.036 288 133.343 288H115.487V284.544L120.287 284.032C120.372 281.429 120.415 278.784 120.415 276.096C120.415 273.408 120.415 270.699 120.415 267.968V265.792C120.415 263.147 120.415 260.501 120.415 257.856C120.415 255.168 120.372 252.523 120.287 249.92L115.487 249.408ZM176.164 259.392C174.969 259.392 173.86 260.139 172.836 261.632C171.855 263.083 171.3 265.771 171.172 269.696H176.612C178.148 269.696 179.172 269.397 179.684 268.8C180.239 268.16 180.516 267.115 180.516 265.664C180.516 263.531 180.089 261.952 179.236 260.928C178.383 259.904 177.359 259.392 176.164 259.392ZM176.292 288.96C173.177 288.96 170.425 288.32 168.036 287.04C165.647 285.717 163.769 283.84 162.404 281.408C161.039 278.933 160.356 275.989 160.356 272.576C160.356 268.992 161.145 265.984 162.724 263.552C164.345 261.077 166.415 259.221 168.932 257.984C171.449 256.704 174.073 256.064 176.804 256.064C179.62 256.064 182.009 256.661 183.972 257.856C185.977 259.051 187.492 260.672 188.516 262.72C189.54 264.725 190.052 267.029 190.052 269.632C190.052 270.869 189.924 272 189.668 273.024H171.172C171.385 276.395 172.303 278.891 173.924 280.512C175.588 282.091 177.529 282.88 179.748 282.88C181.497 282.88 182.991 282.56 184.228 281.92C185.465 281.237 186.553 280.405 187.492 279.424L189.732 281.472C188.409 283.989 186.617 285.867 184.356 287.104C182.095 288.341 179.407 288.96 176.292 288.96ZM212.936 259.904V257.088H225.032V259.904L221.32 260.608L210.76 288.128H205.896L194.376 260.544L191.239 259.904V257.088H209.416V259.904L205.384 260.736L211.4 277.12L216.968 260.672L212.936 259.904ZM241.352 259.392C240.157 259.392 239.048 260.139 238.024 261.632C237.042 263.083 236.488 265.771 236.36 269.696H241.8C243.336 269.696 244.36 269.397 244.872 268.8C245.426 268.16 245.704 267.115 245.704 265.664C245.704 263.531 245.277 261.952 244.424 260.928C243.57 259.904 242.546 259.392 241.352 259.392ZM241.48 288.96C238.365 288.96 235.613 288.32 233.224 287.04C230.834 285.717 228.957 283.84 227.592 281.408C226.226 278.933 225.544 275.989 225.544 272.576C225.544 268.992 226.333 265.984 227.911 263.552C229.533 261.077 231.602 259.221 234.12 257.984C236.637 256.704 239.261 256.064 241.992 256.064C244.808 256.064 247.197 256.661 249.16 257.856C251.165 259.051 252.68 260.672 253.704 262.72C254.728 264.725 255.24 267.029 255.24 269.632C255.24 270.869 255.112 272 254.856 273.024H236.36C236.573 276.395 237.49 278.891 239.112 280.512C240.776 282.091 242.717 282.88 244.936 282.88C246.685 282.88 248.178 282.56 249.416 281.92C250.653 281.237 251.741 280.405 252.68 279.424L254.92 281.472C253.597 283.989 251.805 285.867 249.544 287.104C247.282 288.341 244.594 288.96 241.48 288.96ZM257.664 288V284.992L261.184 284.224C261.227 282.603 261.248 280.981 261.248 279.36C261.291 277.739 261.312 276.139 261.312 274.56V247.744L257.344 247.104V244.416L270.784 241.536L271.808 242.176L271.552 251.136V274.56C271.552 276.181 271.552 277.803 271.552 279.424C271.595 281.045 271.637 282.667 271.68 284.288L275.2 284.992V288H257.664ZM294.8 288.96C291.472 288.96 288.592 288.277 286.16 286.912C283.728 285.504 281.85 283.563 280.528 281.088C279.205 278.571 278.544 275.669 278.544 272.384C278.544 269.099 279.248 266.24 280.656 263.808C282.106 261.376 284.069 259.477 286.544 258.112C289.018 256.747 291.77 256.064 294.8 256.064C297.829 256.064 300.56 256.725 302.992 258.048C305.466 259.371 307.429 261.269 308.88 263.744C310.33 266.176 311.056 269.056 311.056 272.384C311.056 275.712 310.394 278.613 309.072 281.088C307.749 283.563 305.872 285.504 303.44 286.912C301.008 288.277 298.128 288.96 294.8 288.96ZM294.8 285.632C296.592 285.632 297.936 284.587 298.832 282.496C299.728 280.405 300.176 277.099 300.176 272.576C300.176 268.011 299.728 264.683 298.832 262.592C297.936 260.501 296.592 259.456 294.8 259.456C292.965 259.456 291.6 260.501 290.704 262.592C289.808 264.683 289.36 268.011 289.36 272.576C289.36 277.099 289.808 280.405 290.704 282.496C291.6 284.587 292.965 285.632 294.8 285.632ZM314.106 302.528V299.52L317.69 298.752C317.733 296.747 317.754 294.869 317.754 293.12C317.797 291.413 317.818 289.771 317.818 288.192V270.848C317.818 269.099 317.797 267.755 317.754 266.816C317.754 265.835 317.711 264.704 317.626 263.424L313.658 262.848V260.352L326.202 256.064L327.29 256.704L327.546 260.288C330.234 257.472 333.391 256.064 337.018 256.064C339.365 256.064 341.477 256.683 343.354 257.92C345.231 259.157 346.725 260.992 347.834 263.424C348.986 265.856 349.562 268.843 349.562 272.384C349.562 275.797 348.922 278.763 347.642 281.28C346.362 283.755 344.677 285.653 342.586 286.976C340.538 288.299 338.298 288.96 335.866 288.96C332.581 288.96 329.893 287.851 327.802 285.632V288.128C327.802 289.707 327.802 291.349 327.802 293.056C327.845 294.763 327.887 296.597 327.93 298.56L332.026 299.52V302.528H314.106ZM332.346 261.632C331.535 261.632 330.767 261.803 330.042 262.144C329.359 262.485 328.677 262.912 327.994 263.424V281.984C329.274 283.051 330.661 283.584 332.154 283.584C334.074 283.584 335.631 282.688 336.826 280.896C338.063 279.104 338.682 276.309 338.682 272.512C338.682 268.715 338.085 265.963 336.89 264.256C335.738 262.507 334.223 261.632 332.346 261.632ZM369.477 259.392C368.282 259.392 367.173 260.139 366.149 261.632C365.167 263.083 364.613 265.771 364.485 269.696H369.925C371.461 269.696 372.485 269.397 372.997 268.8C373.551 268.16 373.829 267.115 373.829 265.664C373.829 263.531 373.402 261.952 372.549 260.928C371.695 259.904 370.671 259.392 369.477 259.392ZM369.605 288.96C366.49 288.96 363.738 288.32 361.349 287.04C358.959 285.717 357.082 283.84 355.717 281.408C354.351 278.933 353.669 275.989 353.669 272.576C353.669 268.992 354.458 265.984 356.036 263.552C357.658 261.077 359.727 259.221 362.245 257.984C364.762 256.704 367.386 256.064 370.117 256.064C372.933 256.064 375.322 256.661 377.285 257.856C379.29 259.051 380.805 260.672 381.829 262.72C382.853 264.725 383.365 267.029 383.365 269.632C383.365 270.869 383.237 272 382.981 273.024H364.485C364.698 276.395 365.615 278.891 367.237 280.512C368.901 282.091 370.842 282.88 373.061 282.88C374.81 282.88 376.303 282.56 377.541 281.92C378.778 281.237 379.866 280.405 380.805 279.424L383.045 281.472C381.722 283.989 379.93 285.867 377.669 287.104C375.407 288.341 372.719 288.96 369.605 288.96ZM386.916 288V284.992L390.436 284.288C390.478 282.709 390.5 281.024 390.5 279.232C390.5 277.44 390.5 275.883 390.5 274.56V270.784C390.5 269.589 390.478 268.608 390.436 267.84C390.436 267.072 390.414 266.368 390.372 265.728C390.372 265.045 390.35 264.277 390.308 263.424L386.404 262.848V260.352L399.012 256.064L400.164 256.768L400.74 264.32C401.636 261.589 402.894 259.541 404.516 258.176C406.137 256.768 407.737 256.064 409.316 256.064C410.724 256.064 411.94 256.469 412.964 257.28C413.988 258.048 414.628 259.221 414.884 260.8C414.841 262.464 414.393 263.765 413.54 264.704C412.686 265.6 411.62 266.048 410.34 266.048C408.548 266.048 406.905 265.045 405.412 263.04L405.028 262.528C404.089 263.424 403.214 264.555 402.404 265.92C401.636 267.285 401.081 268.715 400.74 270.208V274.56C400.74 275.883 400.74 277.397 400.74 279.104C400.74 280.811 400.761 282.411 400.804 283.904L405.86 284.992V288H386.916ZM427.369 288.96C423.315 288.96 419.603 287.979 416.233 286.016L416.424 278.208H421.545L422.633 284.544C423.401 284.843 424.169 285.077 424.937 285.248C425.705 285.376 426.537 285.44 427.433 285.44C429.267 285.44 430.675 285.141 431.657 284.544C432.638 283.904 433.128 282.944 433.128 281.664C433.128 280.683 432.766 279.829 432.041 279.104C431.315 278.379 429.886 277.717 427.753 277.12L424.297 276.096C421.822 275.371 419.902 274.197 418.536 272.576C417.214 270.955 416.553 268.949 416.553 266.56C416.553 263.616 417.705 261.141 420.009 259.136C422.313 257.088 425.619 256.064 429.929 256.064C431.806 256.064 433.534 256.299 435.113 256.768C436.734 257.195 438.377 257.835 440.041 258.688L439.593 265.664H434.473L433.193 260.16C432.297 259.819 431.123 259.648 429.673 259.648C428.222 259.648 427.049 259.947 426.153 260.544C425.299 261.141 424.873 262.037 424.873 263.232C424.873 264.085 425.214 264.853 425.897 265.536C426.579 266.176 428.03 266.837 430.249 267.52L433.385 268.416C436.414 269.312 438.59 270.592 439.913 272.256C441.235 273.92 441.897 275.947 441.897 278.336C441.897 281.707 440.595 284.331 437.993 286.208C435.433 288.043 431.891 288.96 427.369 288.96Z" fill="#00D8FF"/>
</g>
<defs>
<filter id="filter0_f_179_1782" x="74" y="-9" width="295" height="295" filterUnits="userSpaceOnUse" color-interpolation-filters="sRGB">
<feFlood flood-opacity="0" result="BackgroundImageFix"/>
<feBlend mode="normal" in="SourceGraphic" in2="BackgroundImageFix" result="shape"/>
<feGaussianBlur stdDeviation="32" result="effect1_foregroundBlur_179_1782"/>
</filter>
<clipPath id="clip0_179_1782">
<rect width="444" height="277.5" fill="white"/>
</clipPath>
<clipPath id="clip1_179_1782">
<rect width="109" height="109" fill="white" transform="translate(167 84)"/>
</clipPath>
</defs>
</svg>
