<svg xmlns="http://www.w3.org/2000/svg" xmlns:xlink="http://www.w3.org/1999/xlink" width="1em" height="1em" viewBox="0 0 69.5703125 46.69920349121094" fill="none">
<path d="M31.6211 46.6992C31.0612 46.6992 30.586 46.6211 30.1954 46.4648C30.1823 46.4648 30.1628 46.4518 30.1368 46.4258C30.1107 46.3997 30.0782 46.3867 30.0391 46.3867C30 46.3867 29.9545 46.3607 29.9024 46.3086C29.8633 46.2695 29.8243 46.2435 29.7852 46.2305C29.7592 46.2305 29.7331 46.2239 29.7071 46.2109C29.6941 46.1979 29.6745 46.1784 29.6485 46.1523C29.6355 46.1393 29.6159 46.1263 29.5899 46.1133L29.5508 46.0742C29.5378 46.0742 29.5183 46.0677 29.4922 46.0547C29.4792 46.0417 29.4662 46.0286 29.4532 46.0156C29.4401 46.0026 29.3946 45.9635 29.3164 45.8984C29.2513 45.8463 29.2188 45.8073 29.2188 45.7812L29.1993 45.7617C29.1602 45.7226 29.1276 45.7031 29.1016 45.7031C29.0886 45.6771 29.0756 45.651 29.0625 45.625C29.0495 45.612 29.0365 45.5924 29.0235 45.5664L28.9649 45.5078C28.9519 45.4948 28.9323 45.4818 28.9063 45.4687C28.5417 44.9739 28.2683 44.3685 28.086 43.6523L27.9493 43.125L27.9297 42.9883C27.9037 42.832 27.8776 42.6758 27.8516 42.5195C27.8386 42.3633 27.8125 42.207 27.7735 42.0508C27.7735 41.8945 27.767 41.7773 27.754 41.6992C27.7409 41.6211 27.7279 41.5234 27.7149 41.4062C27.7149 41.3021 27.7084 41.1979 27.6954 41.0937L27.6954 40.8984C27.6823 40.8594 27.6758 40.8138 27.6758 40.7617L27.6758 40.6055L27.6954 40.5859L27.6758 40.5469L27.6758 40.3711L27.6563 40.3711L27.6758 39.5312L27.6563 39.3164C27.6563 39.2513 27.6628 39.1927 27.6758 39.1406L27.6758 38.8086C27.6888 38.7174 27.6954 38.6068 27.6954 38.4766C27.6954 38.3594 27.7019 38.2682 27.7149 38.2031L27.7149 38.0273C27.7279 37.9232 27.7344 37.819 27.7344 37.7148C27.7344 37.6107 27.7474 37.5 27.7735 37.3828C27.7735 37.1224 27.78 36.9596 27.793 36.8945C27.8451 36.6732 27.8711 36.4388 27.8711 36.1914C27.8842 35.957 27.9167 35.7292 27.9688 35.5078L28.0274 34.9023C28.0664 34.7461 28.086 34.5963 28.086 34.4531C28.1381 34.2187 28.1771 33.9779 28.2032 33.7305C28.2422 33.4831 28.2943 33.2357 28.3594 32.9883L28.379 32.8711C28.379 32.7669 28.392 32.6628 28.418 32.5586C28.4571 32.4674 28.4766 32.3958 28.4766 32.3437C28.4766 32.2917 28.5417 31.9922 28.6719 31.4453C28.724 31.1458 28.7891 30.8529 28.8672 30.5664C28.9063 30.306 28.9388 30.1302 28.9649 30.0391C29.004 29.9479 29.0365 29.8503 29.0625 29.7461C29.0886 29.5768 29.2253 29.082 29.4727 28.2617L29.4727 28.1641C29.4857 28.125 29.4987 28.0859 29.5118 28.0469C29.5508 27.9297 29.5834 27.819 29.6094 27.7148C29.6485 27.5976 29.6875 27.4935 29.7266 27.4023L29.7266 27.2851C29.7396 27.2591 29.7852 27.1549 29.8633 26.9726C29.8894 26.8815 29.9024 26.8034 29.9024 26.7383C29.9024 26.7253 29.8894 26.7187 29.8633 26.7187C29.8503 26.7057 29.8112 26.6992 29.7461 26.6992L28.4961 26.7187C28.431 26.7187 28.3724 26.7253 28.3204 26.7383L27.9493 26.7383C27.806 26.7383 27.6954 26.7448 27.6172 26.7578L27.4414 26.7187C27.3894 26.7187 27.3178 26.7318 27.2266 26.7578C27.1094 26.7578 27.0313 26.7513 26.9922 26.7383C26.836 26.7383 26.6862 26.7513 26.543 26.7773L24.043 26.7773L23.8868 26.7578L23.75 26.7773L23.3985 26.7773C23.3724 26.7904 23.3399 26.7969 23.3008 26.7969L22.793 26.7969C22.6888 26.7969 22.5912 26.8034 22.5 26.8164L22.2852 26.7969L22.129 26.8164C21.9857 26.8164 21.8816 26.8229 21.8164 26.8359C21.7123 26.8359 21.6472 26.8294 21.6211 26.8164L21.3282 26.8359C20.7292 26.8359 20.3191 26.8424 20.0977 26.8555L19.2188 26.8555L18.9454 26.8359L18.711 26.8555C18.086 26.8555 17.7149 26.862 17.5977 26.875L17.168 26.875L17.0118 26.8555L16.7383 26.875L16.6211 26.875L16.5821 26.8555C16.53 26.8555 16.4779 26.8685 16.4258 26.8945L16.3086 26.8945L16.2305 26.875L16.1719 26.8945L15.0782 26.9141C14.974 26.9141 14.9024 26.9075 14.8633 26.8945C14.642 26.8945 14.4987 26.901 14.4336 26.9141L13.5352 26.9141L13.3204 26.9336L13.1641 26.9141C13.0599 26.9271 12.9428 26.9336 12.8125 26.9336L7.38282 26.9531L6.32813 26.9336L6.13282 26.9531C5.96355 26.9531 5.83985 26.9466 5.76172 26.9336L5.6836 26.9336C5.65756 26.9466 5.58594 26.9531 5.46875 26.9531C5.19532 26.9531 5.02605 26.9466 4.96094 26.9336C4.33594 26.9336 3.91276 26.9206 3.69141 26.8945C3.48308 26.8685 3.26172 26.8555 3.02735 26.8555L2.85157 26.8555C2.6823 26.8164 2.5 26.7969 2.30469 26.7969C2.10938 26.7838 1.92709 26.7578 1.75782 26.7187C1.69271 26.7187 1.59506 26.7057 1.46485 26.6797L1.28907 26.6406C1.00261 26.5625 0.742187 26.4648 0.507812 26.3476C0.273437 26.2305 0.110677 26.0351 0.019531 25.7617L0 25.5664C0 25.3581 0.045573 25.1888 0.136718 25.0586C0.423177 24.5378 0.800776 24.1016 1.26954 23.75L1.875 23.2422C2.0573 23.0729 2.22657 22.9427 2.38282 22.8516C2.55209 22.7474 2.64974 22.6823 2.67578 22.6562C2.70183 22.6172 2.85157 22.5065 3.125 22.3242C4.47917 21.3997 5.29948 20.8659 5.58594 20.7226C5.63802 20.7096 5.85287 20.5794 6.23047 20.332C6.42578 20.2279 6.61459 20.1107 6.79688 19.9805C6.91407 19.9414 6.98568 19.9088 7.01172 19.8828C9.85026 18.2161 12.8516 16.7122 16.0157 15.3711L16.1329 15.3516C16.4063 15.2474 16.6146 15.1497 16.7579 15.0586L16.9141 15.0391C17.5261 14.7786 18.1511 14.5312 18.7891 14.2969C18.9974 14.2057 19.2123 14.1211 19.4336 14.043L19.5118 14.043C19.5508 14.0299 19.6615 13.9844 19.8438 13.9062C20.0782 13.8281 20.2149 13.7891 20.254 13.7891C20.4232 13.6979 20.612 13.6263 20.8204 13.5742L21.1133 13.4961C21.8946 13.2226 22.7344 12.9687 23.6329 12.7344C23.8542 12.6953 24.0625 12.6432 24.2579 12.5781C24.362 12.5521 24.4597 12.5325 24.5508 12.5195C24.655 12.5065 24.7526 12.487 24.8438 12.4609C25.2344 12.3437 25.6381 12.2526 26.0547 12.1875C26.3672 12.1354 26.6667 12.0768 26.9532 12.0117L27.0508 12.0117C27.142 11.9857 27.2461 11.9661 27.3633 11.9531C27.5977 11.901 27.9167 11.8555 28.3204 11.8164C28.4896 11.8034 28.6524 11.7773 28.8086 11.7383C28.8737 11.7253 28.9323 11.7187 28.9844 11.7187C29.0495 11.7187 29.1081 11.7122 29.1602 11.6992L29.3164 11.6992C29.4467 11.6732 29.5834 11.6601 29.7266 11.6601C29.8698 11.6601 30.0066 11.6471 30.1368 11.6211L30.2344 11.6406L30.5079 11.6016L30.5664 11.6211L30.6446 11.6211L30.7422 11.6016C30.9766 11.6016 31.1133 11.595 31.1524 11.582L31.3672 11.582C31.3803 11.595 31.4128 11.6016 31.4649 11.6016C31.517 11.5885 31.6016 11.582 31.7188 11.582C31.836 11.582 31.9271 11.5885 31.9922 11.6016L32.129 11.6016C32.2331 11.6146 32.3503 11.6211 32.4805 11.6211C32.6107 11.6211 32.7409 11.6341 32.8711 11.6601L33.4571 11.6992L33.7305 11.7578L33.8868 11.7578C33.9519 11.7708 34.0235 11.7838 34.1016 11.7969C34.1797 11.7969 34.2644 11.8099 34.3555 11.8359C34.4467 11.862 34.5573 11.888 34.6875 11.9141C34.8178 11.9401 34.948 11.9726 35.0782 12.0117L35.1954 12.0117C35.4688 12.0898 35.7357 12.1745 35.9961 12.2656C36.0092 12.2786 36.0352 12.2851 36.0743 12.2851C36.1263 12.2851 36.1849 12.3047 36.25 12.3437C36.3151 12.3828 36.3998 12.4088 36.504 12.4219C36.504 12.4088 36.517 12.3958 36.543 12.3828C36.5691 12.3568 36.5886 12.3242 36.6016 12.2851C36.6276 12.2331 36.6667 12.168 36.7188 12.0898L36.9141 11.7969C37.0443 11.5495 37.3633 11.0677 37.8711 10.3516C38.0795 10 38.2357 9.75911 38.3399 9.62891C39.7071 7.59766 41.224 5.72266 42.8907 4.00391L43.1836 3.69141C43.6524 3.19662 44.1537 2.73438 44.6875 2.30469L44.7266 2.24609L44.9219 2.10938C44.961 2.07031 45 2.03125 45.0391 1.99219C45.0782 1.9401 45.1237 1.90104 45.1758 1.875C45.8659 1.3151 46.6342 0.839839 47.4805 0.449219C47.4935 0.436199 47.5131 0.423179 47.5391 0.410159C47.5651 0.397139 47.5847 0.384119 47.5977 0.371089C47.6237 0.358069 47.6498 0.351559 47.6758 0.351559C47.7019 0.351559 47.7279 0.345052 47.754 0.332031C47.8581 0.279948 47.9167 0.253906 47.9297 0.253906C47.9428 0.240885 47.9623 0.234375 47.9883 0.234375C48.0144 0.234375 48.0534 0.221354 48.1055 0.195312C48.1576 0.16927 48.2032 0.149739 48.2422 0.136718L48.379 0.136718C48.4441 0.097656 48.5157 0.071614 48.5938 0.058593L48.9844 0.019531C49.0756 0.019531 49.1276 0.01302 49.1407 0C50.0782 0.026041 50.7357 0.332031 51.1133 0.917969C51.2045 0.983069 51.25 1.04167 51.25 1.09375C51.2631 1.14583 51.2891 1.19141 51.3282 1.23047C51.3672 1.26953 51.4063 1.32813 51.4454 1.40625C51.4454 1.43229 51.4779 1.51042 51.543 1.64063C51.5691 1.71875 51.5821 1.77083 51.5821 1.79688L51.6211 1.875C51.6342 1.88802 51.6407 1.90755 51.6407 1.93359C51.6407 1.94662 51.6472 1.96615 51.6602 1.99219L51.6602 2.07031L51.7383 2.22656C51.7383 2.35677 51.7579 2.48047 51.7969 2.59766C51.8099 2.66276 51.8164 2.76693 51.8164 2.91016C51.8425 2.98828 51.8555 3.07943 51.8555 3.18359C51.8555 3.27474 51.862 3.35938 51.875 3.4375L51.875 3.67188C51.8881 3.72396 51.8946 3.78255 51.8946 3.84766C51.8946 3.91276 51.8881 3.97135 51.875 4.02344C51.875 4.10156 51.8816 4.14714 51.8946 4.16016L51.8946 4.25781C51.8816 4.3099 51.875 4.36198 51.875 4.41406C51.875 4.45313 51.8685 4.48568 51.8555 4.51172L51.8555 4.6875C51.8555 4.76563 51.8425 4.84375 51.8164 4.92188L51.7969 5.42969C51.7579 5.58594 51.7253 5.75521 51.6993 5.9375C51.6862 6.11979 51.6602 6.29557 51.6211 6.46484L51.4649 7.30469C51.4258 7.57813 51.3672 7.83203 51.2891 8.06641L51.2891 8.26172C51.2761 8.28776 51.2566 8.32031 51.2305 8.35938C51.2175 8.39844 51.211 8.45052 51.211 8.51563C51.211 8.58073 51.2045 8.63281 51.1914 8.67188C51.1784 8.69792 51.1654 8.73047 51.1524 8.76953C51.1394 8.79557 51.1329 8.85417 51.1329 8.94531L51.1914 8.94531C51.3607 8.73698 51.5691 8.5612 51.8164 8.41797C51.8685 8.39193 51.9206 8.35287 51.9727 8.30078C51.9987 8.28776 52.0183 8.28125 52.0313 8.28125C52.0573 8.28125 52.142 8.24219 52.2852 8.16406C52.3373 8.16406 52.3829 8.15755 52.4219 8.14453L52.6368 8.125C52.8581 8.125 53.0144 8.15755 53.1055 8.22266C53.1316 8.23568 53.1511 8.25521 53.1641 8.28125C53.1901 8.29427 53.2097 8.30729 53.2227 8.32031C53.2487 8.33333 53.2748 8.34635 53.3008 8.35938C53.3399 8.3724 53.3659 8.39193 53.379 8.41797C53.405 8.44401 53.418 8.47005 53.418 8.49609C53.431 8.50912 53.4636 8.54167 53.5157 8.59375C53.6589 8.73698 53.7566 9.00391 53.8086 9.39451C53.8477 9.48571 53.8672 9.60291 53.8672 9.74611C53.8933 9.87631 53.9063 10.013 53.9063 10.1562C53.9063 10.2604 53.8998 10.3255 53.8868 10.3516C53.8998 10.4036 53.9063 10.4622 53.9063 10.5273L53.8868 10.7617L53.9063 10.8008L53.8868 10.8398C53.8868 10.9831 53.8803 11.1198 53.8672 11.25C53.8542 11.3802 53.8347 11.5169 53.8086 11.6601C53.7826 11.8685 53.7631 12.0052 53.75 12.0703C53.737 12.1224 53.724 12.194 53.711 12.2851C53.711 12.3633 53.7045 12.4414 53.6914 12.5195C53.6394 12.7148 53.6133 12.8581 53.6133 12.9492L53.4375 13.6914C53.3855 13.9648 53.3269 14.2253 53.2618 14.4726C53.2357 14.5638 53.2162 14.6549 53.2032 14.7461C53.1901 14.8372 53.1706 14.9349 53.1446 15.0391L52.8907 15.8594C52.6303 16.875 52.1745 18.2357 51.5235 19.9414C51.5105 19.9935 51.4974 20.0521 51.4844 20.1172C51.4714 20.1693 51.4519 20.2279 51.4258 20.293L50.4297 22.7734L49.5704 24.7851C49.4271 25.0716 49.2969 25.3581 49.1797 25.6445C49.1016 25.7226 49.0495 25.8333 49.0235 25.9766C49.0625 25.9896 49.1993 25.9961 49.4336 25.9961L49.4532 25.9766L49.5118 25.9961L50.3125 25.9961L51.9141 25.9375L52.5 25.9375L52.6563 25.918C52.6763 25.918 52.6957 25.9188 52.7145 25.9204C52.7327 25.891 52.7458 25.8641 52.754 25.8398C52.767 25.7878 52.78 25.7487 52.793 25.7226C53.1185 25.2669 53.3073 24.9935 53.3594 24.9023C53.4245 24.7982 53.4831 24.7266 53.5352 24.6875C53.6003 24.6354 53.6654 24.5963 53.7305 24.5703C53.8607 24.5703 53.9714 24.6094 54.0625 24.6875C54.1537 24.7526 54.1993 24.8437 54.1993 24.9609C54.1862 25.013 54.1667 25.0651 54.1407 25.1172C54.1276 25.1562 54.1016 25.2018 54.0625 25.2539C54.0235 25.306 53.9909 25.3581 53.9649 25.4101C53.9388 25.4492 53.9128 25.4883 53.8868 25.5273C53.8737 25.5664 53.8477 25.5989 53.8086 25.625C53.7435 25.7031 53.6394 25.8463 53.4961 26.0547C53.0144 26.7448 52.6237 27.4154 52.3243 28.0664C52.2982 28.1315 52.2657 28.2096 52.2266 28.3008C52.1875 28.3789 52.155 28.4635 52.129 28.5547C52.1029 28.6328 52.0769 28.7109 52.0508 28.7891C51.9727 28.9062 51.9336 29.056 51.9336 29.2383L51.9532 29.2383C51.9532 29.2513 51.9662 29.2578 51.9922 29.2578C52.2657 28.9844 52.4545 28.7891 52.5586 28.6719C52.5847 28.6328 52.6172 28.6003 52.6563 28.5742C52.6954 28.5482 52.8386 28.3659 53.086 28.0273C53.1901 27.9101 53.5287 27.4739 54.1016 26.7187L54.9219 25.5273C54.974 25.3711 55.0782 25.293 55.2344 25.293C55.3256 25.293 55.4037 25.3125 55.4688 25.3516C55.573 25.4427 55.625 25.5534 55.625 25.6836C55.625 25.8529 55.5534 26.0807 55.4102 26.3672L55.1172 27.0898C54.9219 27.5325 54.7526 28.0599 54.6094 28.6719C54.5964 28.75 54.5769 28.8607 54.5508 29.0039C54.5248 29.1341 54.5118 29.2578 54.5118 29.375L54.5508 29.5898C54.6029 29.5898 54.6485 29.5703 54.6875 29.5312C54.7266 29.4922 54.7657 29.4596 54.8047 29.4336C54.8438 29.4075 54.9414 29.3164 55.0977 29.1601L55.2735 28.9258C55.4428 28.7174 55.599 28.4961 55.7422 28.2617C56.0808 27.6888 56.2956 27.2656 56.3868 26.9922C56.3998 26.9792 56.4128 26.9661 56.4258 26.9531C56.4388 26.9401 56.4519 26.9075 56.4649 26.8555C56.4649 26.8034 56.4519 26.7643 56.4258 26.7383C56.3998 26.7122 56.3868 26.6927 56.3868 26.6797C56.3868 26.5364 56.3672 26.4193 56.3282 26.3281C56.3282 26.263 56.3347 26.2109 56.3477 26.1719C56.3607 26.1328 56.3672 26.1003 56.3672 26.0742C56.3803 26.0482 56.3868 26.0221 56.3868 25.9961L56.3868 25.957C56.3868 25.8789 56.4323 25.7878 56.5235 25.6836C56.6146 25.5794 56.6928 25.5208 56.7579 25.5078C56.823 25.4818 56.875 25.4622 56.9141 25.4492C57.0183 25.4492 57.1029 25.4883 57.168 25.5664C57.2461 25.6445 57.2982 25.7292 57.3243 25.8203L57.3047 26.0351L57.3243 26.1133C57.4024 26.4388 57.6237 26.6016 57.9883 26.6016C58.2487 26.6016 58.4571 26.556 58.6133 26.4648C58.7696 26.3737 58.8933 26.3281 58.9844 26.3281C58.991 26.3281 58.9975 26.3281 59.0039 26.3283L59.004 26.3281C59.004 26.3151 59.0105 26.3086 59.0235 26.3086C59.0886 26.2174 59.2579 26.0351 59.5313 25.7617L60.1172 25.332C60.4948 25.1237 60.8008 25.0195 61.0352 25.0195L61.4063 25.0586C61.4714 25.0846 61.517 25.1107 61.543 25.1367L61.6016 25.1953C61.6146 25.2083 61.6276 25.2148 61.6407 25.2148C61.7969 25.293 61.875 25.3841 61.875 25.4883L61.875 25.5273C61.875 25.5534 61.8816 25.5924 61.8946 25.6445C61.9076 25.6966 61.9141 25.7552 61.9141 25.8203C61.9141 25.9896 61.862 26.1328 61.7579 26.25C61.4584 26.6146 61.0612 26.8815 60.5664 27.0508C60.4883 27.0768 60.4037 27.1029 60.3125 27.1289C60.2344 27.1419 60.1498 27.1614 60.0586 27.1875C59.9675 27.2135 59.8633 27.2331 59.7461 27.2461C59.6252 27.2461 59.5263 27.2507 59.4495 27.26C59.3818 27.334 59.2944 27.397 59.1873 27.4491C59.1844 27.4592 59.1819 27.4697 59.1797 27.4805C59.0495 27.7279 58.9584 28.0208 58.9063 28.3594C58.9063 28.4505 58.9193 28.5417 58.9454 28.6328C58.9714 28.7239 59.004 28.7825 59.043 28.8086C59.0951 28.8346 59.1407 28.8542 59.1797 28.8672C59.3099 28.8672 59.4206 28.8346 59.5118 28.7695C59.9154 28.5872 60.267 28.3789 60.5664 28.1445C60.879 27.8971 61.1914 27.6432 61.504 27.3828C61.6211 27.2917 61.7318 27.1875 61.836 27.0703C61.875 27.0443 61.9076 27.0117 61.9336 26.9726L62.168 26.7969L62.3243 26.6016C62.4805 26.4844 62.6237 26.3542 62.754 26.2109C62.78 26.1719 62.8125 26.1393 62.8516 26.1133L63.1836 25.7812C63.2748 25.6901 63.3594 25.5924 63.4375 25.4883C63.5157 25.3841 63.6524 25.2344 63.8477 25.0391L64.0235 24.8242C64.0365 24.7851 64.0625 24.7461 64.1016 24.707L64.1797 24.707C64.2058 24.694 64.2383 24.6745 64.2774 24.6484C64.3816 24.6614 64.4727 24.7005 64.5508 24.7656C64.642 24.8177 64.6875 24.8893 64.6875 24.9805C64.6615 25.0976 64.6159 25.2083 64.5508 25.3125L64.4727 25.4101C64.3164 25.6706 64.1602 25.9049 64.004 26.1133C63.6784 26.6341 63.418 27.0898 63.2227 27.4805C63.1185 27.5846 63.0664 27.6758 63.0664 27.7539L63.086 27.7539C63.2553 27.5976 63.418 27.4349 63.5743 27.2656C63.9388 26.862 64.336 26.4974 64.7657 26.1719C64.8047 26.1458 64.8373 26.1133 64.8633 26.0742C65.2149 25.8398 65.4362 25.6771 65.5274 25.5859C65.5664 25.5469 65.6055 25.5208 65.6446 25.5078C65.6836 25.4818 65.7227 25.4557 65.7618 25.4297C66.0352 25.2734 66.2956 25.1823 66.543 25.1562C66.5951 25.1562 66.6537 25.1628 66.7188 25.1758C66.7969 25.1888 66.8555 25.2279 66.8946 25.293C66.9467 25.345 66.9922 25.3841 67.0313 25.4101C67.1094 25.5404 67.1485 25.6901 67.1485 25.8594C67.1485 26.0286 67.1224 26.1849 67.0704 26.3281C67.0443 26.3932 67.0118 26.4779 66.9727 26.582C66.9467 26.6732 66.6732 27.22 66.1524 28.2226C66.0482 28.3919 65.9636 28.5677 65.8985 28.75C65.8985 28.763 65.892 28.7695 65.879 28.7695C65.8399 28.8476 65.8204 28.9128 65.8204 28.9648L65.879 28.9648L65.9766 28.9062C66.3412 28.75 66.6732 28.5677 66.9727 28.3594C67.6107 27.9036 68.1967 27.3958 68.7305 26.8359C68.8347 26.7578 68.9258 26.6667 69.004 26.5625C69.0821 26.4453 69.1667 26.3867 69.2579 26.3867C69.4662 26.3867 69.5704 26.4909 69.5704 26.6992C69.5704 26.8034 69.5378 26.8815 69.4727 26.9336L69.3555 27.0508C69.2644 27.1159 69.1862 27.1875 69.1211 27.2656L69.0625 27.3437C68.9714 27.4088 68.8933 27.4739 68.8282 27.5391C68.4115 27.9557 68.073 28.2617 67.8125 28.457C67.7865 28.4831 67.767 28.5091 67.754 28.5351C67.7409 28.5612 67.6303 28.6588 67.4219 28.8281C67.3829 28.8411 67.2592 28.9323 67.0508 29.1016C66.6732 29.388 66.4519 29.5508 66.3868 29.5898L66.3672 29.5898C66.0938 29.7851 65.8204 29.8828 65.5469 29.8828C65.3125 29.8828 65.1628 29.7982 65.0977 29.6289C65.0977 29.6159 65.0912 29.6029 65.0782 29.5898C65.0651 29.5638 65.0456 29.5378 65.0196 29.5117C65.0066 29.4857 64.987 29.4336 64.961 29.3555L64.9805 29.0039C65.0196 28.8737 65.0717 28.737 65.1368 28.5937L65.1563 28.5547C65.4428 28.0729 65.7748 27.4023 66.1524 26.543C66.1654 26.5039 66.1849 26.4648 66.211 26.4258C66.237 26.3867 66.2631 26.3346 66.2891 26.2695C66.3151 26.1914 66.3347 26.1068 66.3477 26.0156C66.3868 25.9505 66.4063 25.8594 66.4063 25.7422C66.3542 25.7422 66.3086 25.7487 66.2696 25.7617C66.1394 25.8008 66.0547 25.8333 66.0157 25.8594C65.9896 25.8724 65.9571 25.8789 65.918 25.8789L65.7422 25.9961C65.7292 25.9961 65.7032 26.0026 65.6641 26.0156C65.6381 26.0156 65.5013 26.1133 65.254 26.3086L65.1368 26.4062C64.629 26.7578 64.1472 27.22 63.6914 27.793L63.418 28.0859C63.3269 28.1771 63.2162 28.3138 63.086 28.4961C62.8386 28.7956 62.7084 28.9713 62.6954 29.0234C62.5651 29.2318 62.4089 29.4336 62.2266 29.6289C62.1485 29.694 62.0964 29.7396 62.0704 29.7656C62.0573 29.7786 62.0118 29.7851 61.9336 29.7851C61.7253 29.7331 61.6211 29.6354 61.6211 29.4922C61.6211 29.375 61.6797 29.1992 61.7969 28.9648L62.2852 28.0859C62.3373 27.9427 62.3959 27.8125 62.461 27.6953C62.5 27.6562 62.5261 27.6107 62.5391 27.5586C62.5521 27.5065 62.5782 27.4609 62.6172 27.4219L62.8516 26.9922C62.8516 26.9792 62.8581 26.9726 62.8711 26.9726L62.9688 26.7773L62.9493 26.7773L62.754 26.9531C62.4284 27.3047 62.2006 27.5325 62.0704 27.6367C61.9271 27.806 61.7709 27.9622 61.6016 28.1055L61.4454 28.2422C61.1459 28.5807 60.8008 28.8932 60.4102 29.1797C60.2279 29.3489 60.1237 29.4401 60.0977 29.4531L60.0586 29.4531C60.0586 29.4531 60.0521 29.4661 60.0391 29.4922C60.0261 29.5052 59.9935 29.5247 59.9414 29.5508C59.9024 29.5638 59.8633 29.5768 59.8243 29.5898C59.7852 29.6029 59.7461 29.6289 59.7071 29.668C59.6159 29.681 59.5313 29.7135 59.4532 29.7656C59.3099 29.7656 59.2383 29.7721 59.2383 29.7851C59.1862 29.7982 59.1146 29.8047 59.0235 29.8047C58.9193 29.7526 58.8347 29.7266 58.7696 29.7266C58.6914 29.7135 58.6394 29.6875 58.6133 29.6484L58.5157 29.5508C58.4375 29.5117 58.3724 29.4661 58.3204 29.4141C58.2292 29.2448 58.1511 29.0495 58.086 28.8281L58.0664 28.4766C58.0664 28.24 58.1166 27.9796 58.2169 27.6952C58.1488 27.7029 58.0661 27.7094 57.9688 27.7148C57.9037 27.7018 57.7735 27.6953 57.5782 27.6953C57.5521 27.6823 57.5261 27.6693 57.5 27.6562C57.474 27.6432 57.4414 27.6367 57.4024 27.6367C57.3763 27.6237 57.3568 27.6172 57.3438 27.6172L57.3047 27.6172C57.2657 27.6172 57.155 27.5586 56.9727 27.4414C56.9597 27.4284 56.9336 27.4088 56.8946 27.3828C56.8685 27.3568 56.849 27.3437 56.836 27.3437C56.7839 27.3568 56.7513 27.3828 56.7383 27.4219C56.7253 27.4479 56.7123 27.4739 56.6993 27.5C56.6993 27.526 56.6928 27.5521 56.6797 27.5781C56.5105 27.8385 56.3998 28.0338 56.3477 28.1641C56.3086 28.2943 56.224 28.457 56.0938 28.6523C56.0678 28.6914 56.0482 28.7305 56.0352 28.7695C56.0222 28.8086 55.9441 28.9388 55.8008 29.1601C55.6055 29.4726 55.4623 29.694 55.3711 29.8242C55.28 29.9544 55.1628 30.0781 55.0196 30.1953C54.9545 30.2604 54.9024 30.306 54.8633 30.332C54.8243 30.3581 54.7787 30.3776 54.7266 30.3906C54.6745 30.4167 54.6094 30.4362 54.5313 30.4492C54.5053 30.4753 54.4532 30.4883 54.375 30.4883L54.336 30.4883C53.9063 30.345 53.6914 30.013 53.6914 29.4922L53.6914 29.1406C53.7045 29.0755 53.711 29.0169 53.711 28.9648L53.75 28.7695C53.7631 28.7044 53.7761 28.6328 53.7891 28.5547C53.8021 28.4766 53.8217 28.4049 53.8477 28.3398C53.8737 28.2617 53.8868 28.1836 53.8868 28.1055L53.8282 28.1055L53.2032 28.9453C52.8125 29.5573 52.4219 29.9609 52.0313 30.1562C52.0183 30.1562 52.0053 30.1628 51.9922 30.1758C51.9662 30.2018 51.9401 30.2148 51.9141 30.2148C51.875 30.2279 51.836 30.2344 51.7969 30.2344C51.7318 30.2344 51.6797 30.2213 51.6407 30.1953C51.6016 30.1823 51.5495 30.1758 51.4844 30.1758C51.2761 30.1107 51.1719 29.9088 51.1719 29.5703C51.1719 29.362 51.2045 29.1536 51.2696 28.9453C51.4699 28.2942 51.7935 27.5584 52.2404 26.7378C51.842 26.7339 51.3556 26.708 50.7813 26.6601C50.625 26.6471 50.4232 26.6406 50.1758 26.6406C50.1498 26.6276 50.1172 26.6211 50.0782 26.6211L49.961 26.6406C49.8829 26.6406 49.8047 26.6341 49.7266 26.6211C49.6615 26.6081 49.6029 26.6016 49.5508 26.6016L49.3555 26.6211L49.043 26.6211L48.8868 26.6016L48.7305 26.6211C48.5873 26.8685 48.4506 27.1289 48.3204 27.4023C48.2292 27.5976 48.1316 27.7864 48.0274 27.9687C48.0013 28.0208 47.9818 28.0794 47.9688 28.1445C47.9558 28.1966 47.9297 28.2487 47.8907 28.3008C47.7865 28.47 47.6954 28.6523 47.6172 28.8476L47.5391 28.9648C47.5 29.095 47.4349 29.2253 47.3438 29.3555C47.2657 29.4857 47.1875 29.6289 47.1094 29.7851L46.8946 30.2344C46.7383 30.5078 46.5821 30.7878 46.4258 31.0742C46.2696 31.3737 46.1003 31.6797 45.918 31.9922L45.7227 32.3633C45.5404 32.6628 45.3646 32.9622 45.1954 33.2617C45.0261 33.5742 44.8503 33.8802 44.668 34.1797C43.6654 35.7943 43.086 36.7057 42.9297 36.9141L42.6954 37.2461C41.6537 38.7825 41.0873 39.5703 40.9961 39.6094C40.7618 39.9479 40.6185 40.1302 40.5664 40.1562C40.3972 40.3906 40.2279 40.6055 40.0586 40.8008C39.8894 41.0091 39.7266 41.2174 39.5704 41.4258C39.5053 41.4518 39.4271 41.5299 39.336 41.6601L39.1797 41.8555L39.1016 41.9141C39.0495 41.9922 38.9909 42.0638 38.9258 42.1289L38.711 42.3437C38.6068 42.487 38.4896 42.6107 38.3594 42.7148C38.3334 42.7279 38.3138 42.7409 38.3008 42.7539C38.3008 42.7799 38.2943 42.793 38.2813 42.793C38.2813 42.806 38.2748 42.819 38.2618 42.832L38.2422 42.832L38.1446 42.9492C37.9362 43.1575 37.7735 43.3073 37.6563 43.3984C37.6433 43.4114 37.6303 43.431 37.6172 43.457C37.6172 43.4831 37.5391 43.5482 37.3829 43.6523C37.3308 43.6914 37.2852 43.737 37.2461 43.7891C37.2071 43.8542 37.1355 43.9193 37.0313 43.9844L36.4063 44.5117L35.9961 44.8242L35.9961 44.8437C35.5925 45.1432 35.306 45.332 35.1368 45.4101L35.0586 45.4883L34.9805 45.4883C34.9675 45.5013 34.961 45.5143 34.961 45.5273C34.8959 45.5534 34.8373 45.5859 34.7852 45.625L34.3555 45.8594C34.3425 45.8594 34.3295 45.8659 34.3164 45.8789C34.3164 45.8919 34.3099 45.8984 34.2969 45.8984C34.2839 45.9114 34.2579 45.9245 34.2188 45.9375C34.1928 45.9505 34.1667 45.957 34.1407 45.957C34.1276 45.97 34.1016 45.9961 34.0625 46.0351C33.9063 46.1003 33.7435 46.1654 33.5743 46.2305C33.418 46.3086 33.2878 46.3607 33.1836 46.3867C33.1316 46.3867 33.073 46.3997 33.0079 46.4258C32.6042 46.582 32.142 46.6732 31.6211 46.6992ZM42.2852 26.0742C42.4154 25.8398 42.5261 25.5859 42.6172 25.3125C42.6693 25.1302 42.7019 25.0325 42.7149 25.0195C42.7409 24.9935 42.7605 24.9674 42.7735 24.9414C42.8386 24.7461 42.8711 24.6484 42.8711 24.6484C42.8711 24.6354 42.8776 24.6289 42.8907 24.6289C42.9167 24.6159 42.9297 24.5703 42.9297 24.4922L42.9297 24.4726C42.9558 24.4466 42.9753 24.4141 42.9883 24.375C43.0144 24.3359 43.0339 24.2969 43.0469 24.2578C43.0599 24.2187 43.073 24.1732 43.086 24.1211C43.125 24.082 43.1446 24.0495 43.1446 24.0234C43.1836 23.9583 43.2097 23.8997 43.2227 23.8476C43.2357 23.7825 43.2487 23.7435 43.2618 23.7305C43.3269 23.6003 43.379 23.4766 43.418 23.3594C43.418 23.3463 43.4375 23.3203 43.4766 23.2812L43.4766 23.1836L43.5547 23.1055C43.6198 22.9101 43.6524 22.8125 43.6524 22.8125C43.6524 22.7995 43.6719 22.7734 43.711 22.7344C43.711 22.6823 43.7175 22.6497 43.7305 22.6367C44.5118 20.7878 45.4297 18.8216 46.4844 16.7383L46.543 16.5625C46.6993 16.2891 46.8425 16.0091 46.9727 15.7226C47.3503 14.9805 47.6498 14.4141 47.8711 14.0234C47.9883 13.776 48.1185 13.5417 48.2618 13.3203L48.3399 13.1836C48.3659 13.0794 48.4571 12.9232 48.6133 12.7148C48.6394 12.6628 48.6589 12.6172 48.6719 12.5781C48.6849 12.526 48.7045 12.4805 48.7305 12.4414C48.8217 12.3372 48.8998 12.22 48.9649 12.0898C49.0951 11.8555 49.349 11.4388 49.7266 10.8398C49.8178 10.7226 49.9089 10.5924 50 10.4492C50.0912 10.293 50.1823 10.1628 50.2735 10.0586L50.3907 9.90231C50.3907 9.87631 50.3972 9.85681 50.4102 9.84371C50.4753 9.77861 50.5339 9.70701 50.586 9.62891L50.586 9.31641C50.625 9.1862 50.6511 9.04948 50.6641 8.90625C50.6901 8.76302 50.7162 8.63281 50.7422 8.51563L50.7422 8.33984C50.7422 8.27474 50.7487 8.21615 50.7618 8.16406C50.8008 8.02083 50.8204 7.87109 50.8204 7.71484C50.8334 7.55859 50.8529 7.41537 50.879 7.28516C50.892 7.23307 50.8985 7.1224 50.8985 6.95313C50.9245 6.86198 50.9375 6.76432 50.9375 6.66016C50.9375 6.55599 50.9506 6.45833 50.9766 6.36719C50.9766 6.08073 50.9831 5.89193 50.9961 5.80078C51.0092 5.70964 51.0157 5.59896 51.0157 5.46875C51.0157 4.24479 50.892 3.26823 50.6446 2.53906C50.6446 2.47396 50.6316 2.42839 50.6055 2.40234C50.5925 2.36328 50.5795 2.33724 50.5664 2.32422L50.5664 2.28516C50.5664 2.25912 50.5534 2.23307 50.5274 2.20703C50.5013 2.16797 50.4883 2.13542 50.4883 2.10938C50.3451 1.8099 50.1498 1.57552 49.9024 1.40625C49.7071 1.28906 49.4467 1.23047 49.1211 1.23047L48.7696 1.25C48.6654 1.25 48.418 1.3151 48.0274 1.44531L47.8711 1.48438C47.2722 1.74479 46.7058 2.04427 46.1719 2.38281C46.1589 2.38281 46.1459 2.39583 46.1329 2.42188C46.1329 2.4349 46.1198 2.44792 46.0938 2.46094C46.0808 2.46094 46.0678 2.46745 46.0547 2.48047L46.0157 2.48047C46.0157 2.48047 45.9831 2.51302 45.918 2.57813L45.7813 2.63672C45.7683 2.66276 45.7553 2.68229 45.7422 2.69531L45.7032 2.73438C45.6901 2.73438 45.6706 2.74089 45.6446 2.75391C45.6185 2.75391 45.5599 2.79948 45.4688 2.89063C45.3776 2.98177 45.2995 3.04688 45.2344 3.08594C45.1693 3.11198 45.1107 3.14453 45.0586 3.18359L44.8633 3.35938C44.7852 3.39844 44.7201 3.45703 44.668 3.53516C44.2904 3.83464 44.03 4.05599 43.8868 4.19922L43.6719 4.39453L43.6524 4.39453C43.5873 4.48568 43.5222 4.55729 43.4571 4.60938C43.392 4.64844 43.3529 4.68099 43.3399 4.70703C43.3269 4.72005 43.3138 4.73307 43.3008 4.74609C43.3008 4.75912 43.2813 4.78516 43.2422 4.82422C43.2162 4.82422 43.1967 4.83724 43.1836 4.86328L43.1446 4.90234C43.1446 4.91537 43.1381 4.92839 43.125 4.94141C42.9818 5.04557 42.8581 5.16927 42.754 5.3125L42.5 5.56641C42.3568 5.72266 42.2201 5.8724 42.0899 6.01563C41.9597 6.14583 41.8425 6.27604 41.7383 6.40625L41.6407 6.48438L41.25 6.97266C41.237 6.98568 41.2175 7.00521 41.1914 7.03125C41.1654 7.04427 41.0873 7.14193 40.9571 7.32422C40.879 7.40234 40.8008 7.49349 40.7227 7.59766C40.6967 7.61068 40.6771 7.63021 40.6641 7.65625C40.6511 7.66927 40.6381 7.67578 40.625 7.67578C40.4688 7.89714 40.306 8.11198 40.1368 8.32031C39.8763 8.64583 39.6224 8.97787 39.375 9.31641C39.375 9.32943 39.362 9.34245 39.336 9.35551C39.323 9.36851 39.3099 9.38801 39.2969 9.41411L38.8282 10.0781C38.7631 10.1172 38.3855 10.6706 37.6954 11.7383C37.4089 12.194 37.2526 12.4284 37.2266 12.4414C37.1485 12.5586 37.1094 12.6497 37.1094 12.7148L37.461 12.9101C37.7865 13.0794 38.125 13.2943 38.4766 13.5547L38.711 13.7305C38.7761 13.8216 38.8217 13.8737 38.8477 13.8867C38.8737 13.8997 38.8998 13.9193 38.9258 13.9453C38.9519 13.9583 38.9714 13.9779 38.9844 14.0039C39.2448 14.1992 39.4727 14.4271 39.668 14.6875L39.7852 14.8047L40.2149 15.3711C40.2279 15.3971 40.2409 15.4232 40.254 15.4492C40.267 15.4622 40.2865 15.4883 40.3125 15.5273L40.3907 15.6055C40.9506 16.5039 41.3933 17.5195 41.7188 18.6523C41.7839 18.8997 41.836 19.1406 41.875 19.375C41.9532 19.7917 41.9922 20.0391 41.9922 20.1172C42.0573 20.3255 42.0899 20.5469 42.0899 20.7812C42.1159 20.8984 42.129 21.0221 42.129 21.1523C42.129 21.2695 42.142 21.3802 42.168 21.4844L42.168 21.7187L42.1875 21.9141L42.1875 23.0469C42.2006 23.0859 42.2071 23.1315 42.2071 23.1836C42.2071 23.2487 42.2006 23.3008 42.1875 23.3398L42.1875 23.4375L42.2071 23.4766L42.1875 23.4961L42.1875 23.5547C42.1875 23.5677 42.181 23.5742 42.168 23.5742L42.1875 23.6523C42.1875 23.8086 42.181 23.9258 42.168 24.0039C42.155 24.069 42.1485 24.1536 42.1485 24.2578L42.1485 24.4141C42.1485 24.5703 42.1355 24.72 42.1094 24.8633L42.1094 25.0195C42.0834 25.0976 42.0704 25.1823 42.0704 25.2734L41.9922 25.957L41.9922 26.0547L42.1094 26.0742L42.2852 26.0742ZM43.4375 26.0742C43.6459 26.0612 44.0691 26.0547 44.7071 26.0547C44.7331 26.0417 44.7657 26.0351 44.8047 26.0351L44.8829 26.0547L45.6641 26.0351C45.7943 26.0221 46.0026 26.0156 46.2891 26.0156C46.3672 26.0156 46.4128 26.0221 46.4258 26.0351C46.517 26.0221 46.6211 26.0156 46.7383 26.0156L47.793 26.0156C48.0534 26.0156 48.2487 26.0091 48.379 25.9961C48.5092 25.7878 48.6198 25.5664 48.711 25.332L48.7891 25.1953C48.8412 25.0911 48.9454 24.8437 49.1016 24.4531L49.1797 24.375C49.2839 24.0495 49.4076 23.7565 49.5508 23.4961C49.5638 23.47 49.5704 23.444 49.5704 23.418C49.5704 23.3919 49.5769 23.3724 49.5899 23.3594L49.6875 23.1445C49.7657 22.9883 49.8047 22.8971 49.8047 22.8711C49.8047 22.845 49.8112 22.8255 49.8243 22.8125C49.9805 22.487 50.1237 22.1484 50.254 21.7969L50.4883 21.1914C50.5013 21.1784 50.5079 21.1654 50.5079 21.1523C50.5079 21.1263 50.5144 21.1003 50.5274 21.0742C50.9701 19.9805 51.3737 18.8476 51.7383 17.6758C51.8164 17.4674 51.8816 17.2591 51.9336 17.0508C52.0508 16.6992 52.1615 16.3281 52.2657 15.9375L52.4414 15.3125C52.4414 15.2474 52.4545 15.1628 52.4805 15.0586C52.5456 14.8242 52.6042 14.5833 52.6563 14.3359C52.7474 13.9062 52.793 13.6849 52.793 13.6719C52.793 13.6458 52.7995 13.6198 52.8125 13.5937L52.9102 13.0469C52.9623 12.7083 52.9883 12.5065 52.9883 12.4414L53.0664 12.0312C53.0795 11.9661 53.086 11.901 53.086 11.8359C53.086 11.7578 53.0925 11.6862 53.1055 11.6211L53.125 11.0937L53.125 10.5078C53.125 10.3646 53.112 10.2279 53.086 10.0976L53.0664 9.96091L53.086 9.90231C53.086 9.87631 53.0795 9.85681 53.0664 9.84371C53.0534 9.81771 53.0469 9.79171 53.0469 9.76561C53.0079 9.58331 52.9558 9.42711 52.8907 9.29688C52.8776 9.28385 52.8646 9.26432 52.8516 9.23828C52.8386 9.19922 52.8125 9.16667 52.7735 9.14063C52.7474 9.10156 52.7019 9.08203 52.6368 9.08203L52.5782 9.10156C52.461 9.11458 52.2722 9.23177 52.0118 9.45311L51.836 9.58981C51.836 9.61591 51.8295 9.63541 51.8164 9.64841L51.7774 9.64841C51.7774 9.66141 51.7644 9.67451 51.7383 9.68751C51.7123 9.70051 51.6797 9.73311 51.6407 9.78511C51.6016 9.83721 51.5625 9.88281 51.5235 9.92191L51.25 10.2148C51.0938 10.4101 50.9961 10.5208 50.9571 10.5469C50.918 10.5729 50.8138 10.7161 50.6446 10.9766C50.306 11.3802 49.7917 12.1224 49.1016 13.2031L48.9649 13.457C47.4414 15.9831 46.0482 18.6393 44.7852 21.4258C44.7852 21.4518 44.7722 21.4779 44.7461 21.5039C44.7331 21.5169 44.7201 21.5364 44.7071 21.5625C44.7071 21.5885 44.7006 21.6211 44.6875 21.6601C44.6745 21.6862 44.6485 21.7253 44.6094 21.7773C44.6094 21.7904 44.6029 21.8099 44.5899 21.8359C44.5769 21.8489 44.5704 21.875 44.5704 21.9141C44.5704 21.9531 44.5443 22.0117 44.4922 22.0898C44.4401 22.1549 44.4141 22.2005 44.4141 22.2266C44.4141 22.2526 44.4076 22.2721 44.3946 22.2851C44.3685 22.3503 44.323 22.4349 44.2579 22.5391L44.2579 22.6367C44.2188 22.6758 44.1928 22.7148 44.1797 22.7539C44.1667 22.7799 44.1537 22.819 44.1407 22.8711C44.1016 22.9753 44.0365 23.0989 43.9454 23.2422C43.9454 23.2682 43.9388 23.2878 43.9258 23.3008L43.9258 23.3594C43.7826 23.6458 43.5808 24.1146 43.3204 24.7656C43.2813 24.8047 43.2553 24.8372 43.2422 24.8633C43.2422 24.8893 43.2357 24.9154 43.2227 24.9414L43.2227 24.9805C43.2227 24.9935 43.2032 25.0195 43.1641 25.0586C43.1641 25.1107 43.1576 25.1432 43.1446 25.1562C43.1446 25.1693 43.125 25.1953 43.086 25.2344L43.086 25.332C43.0339 25.3841 43.0079 25.4232 43.0079 25.4492C43.0079 25.4753 43.0013 25.4948 42.9883 25.5078L42.9883 25.5273C42.9883 25.5404 42.9688 25.5664 42.9297 25.6055C42.9297 25.6575 42.9232 25.6966 42.9102 25.7226C42.8972 25.7487 42.8711 25.7878 42.8321 25.8398C42.806 25.8919 42.793 25.9635 42.793 26.0547C42.8321 26.0677 43.0469 26.0742 43.4375 26.0742ZM14.5704 26.4844L15.2344 26.4648L18.9063 26.4648C19.0886 26.4648 19.2188 26.4583 19.2969 26.4453L20.1563 26.4453C20.3256 26.4453 20.4493 26.4388 20.5274 26.4258L20.8204 26.4453C20.8855 26.4193 20.9571 26.4062 21.0352 26.4062L21.1133 26.4258L21.6211 26.4062L22.2266 26.4062C22.3047 26.4062 22.3763 26.3997 22.4414 26.3867L24.4727 26.3867C25.1498 26.3867 25.7813 26.3737 26.3672 26.3476C26.9662 26.3216 27.9623 26.3086 29.3555 26.3086C29.4597 26.2956 29.5704 26.2891 29.6875 26.2891L30.0391 26.2891C30.0912 26.1719 30.1303 26.0547 30.1563 25.9375C30.1954 25.8073 30.2865 25.5664 30.4297 25.2148C30.4818 25.0846 30.5079 25.0065 30.5079 24.9805C30.5209 24.9414 30.5274 24.9154 30.5274 24.9023C30.6967 24.4857 30.8138 24.1667 30.879 23.9453C30.905 23.8411 30.9441 23.7305 30.9961 23.6133C31.1133 23.3268 31.224 23.0404 31.3282 22.7539C31.4454 22.4544 31.5691 22.1549 31.6993 21.8555C31.7123 21.8164 31.7318 21.7773 31.7579 21.7383C31.7969 21.6862 31.8425 21.569 31.8946 21.3867L31.9922 21.1328L32.1485 20.8398L32.3243 20.3711C32.5717 19.8893 32.7995 19.3945 33.0079 18.8867L33.2813 18.3398C33.4115 18.0664 33.5482 17.7995 33.6914 17.5391L33.7305 17.4023C33.8347 17.2461 33.9323 17.0768 34.0235 16.8945C34.0365 16.8424 34.056 16.7969 34.0821 16.7578C34.1081 16.6667 34.1407 16.595 34.1797 16.543C34.4662 16.0221 34.6224 15.7357 34.6485 15.6836C34.6875 15.6185 34.7136 15.5599 34.7266 15.5078C34.7526 15.4427 34.7852 15.3841 34.8243 15.332L35.6446 13.8867C35.7227 13.7695 35.7683 13.6914 35.7813 13.6523C35.7943 13.6133 35.8138 13.5742 35.8399 13.5351C35.918 13.457 35.9571 13.3659 35.9571 13.2617C35.7357 13.1575 35.5013 13.0729 35.254 13.0078L34.8829 12.8906C34.8178 12.8646 34.7526 12.8516 34.6875 12.8516C34.6355 12.8385 34.4727 12.7995 34.1993 12.7344C34.004 12.6953 33.8868 12.6758 33.8477 12.6758C33.8217 12.6758 33.7761 12.6693 33.711 12.6562C33.5938 12.6172 33.4701 12.5911 33.3399 12.5781C33.2097 12.5651 33.086 12.5456 32.9688 12.5195L32.8321 12.5L32.6758 12.5C32.5847 12.4739 32.4805 12.4609 32.3633 12.4609C32.2592 12.4609 32.1615 12.4544 32.0704 12.4414L31.875 12.4414C31.7579 12.4154 31.6081 12.4023 31.4258 12.4023L30.1758 12.4023C30.1498 12.4154 29.9805 12.4219 29.668 12.4219L29.5118 12.4414L29.4141 12.4219C29.3881 12.4219 29.3555 12.4284 29.3164 12.4414C29.2904 12.4544 29.2513 12.4609 29.1993 12.4609C29.1602 12.4609 29.1211 12.4674 29.0821 12.4805L28.9844 12.4609C28.8672 12.487 28.724 12.5 28.5547 12.5C28.3985 12.5 28.2422 12.5195 28.086 12.5586L27.9493 12.5586L27.793 12.5781C27.5326 12.6302 27.2657 12.6693 26.9922 12.6953C26.7188 12.7213 26.4584 12.7669 26.211 12.832C26.0938 12.8581 25.9831 12.8776 25.879 12.8906C25.7748 12.9036 25.6706 12.9232 25.5664 12.9492C25.4623 12.9622 25.3711 12.9818 25.293 13.0078C25.2279 13.0208 25.1758 13.0273 25.1368 13.0273C25.0977 13.0273 25.0521 13.0338 25 13.0469C24.8959 13.0729 24.7852 13.0989 24.668 13.125C24.5638 13.138 24.4532 13.1641 24.336 13.2031C24.2188 13.2292 24.0886 13.2552 23.9454 13.2812C23.698 13.3333 23.4571 13.3984 23.2227 13.4766L23.1641 13.4766L22.9102 13.5351C22.8191 13.5612 22.7344 13.5937 22.6563 13.6328C22.5912 13.6328 22.5456 13.6393 22.5196 13.6523C22.5066 13.6523 22.474 13.6654 22.4219 13.6914C22.3829 13.7044 22.3308 13.7174 22.2657 13.7305L22.1875 13.7305C22.1615 13.7435 22.129 13.763 22.0899 13.7891C22.0638 13.8021 21.9857 13.8216 21.8555 13.8476C21.7253 13.8737 21.4258 13.9648 20.9571 14.1211C20.4102 14.2773 20.1237 14.3685 20.0977 14.3945C20.0847 14.4075 20.0586 14.4206 20.0196 14.4336C19.9935 14.4336 19.961 14.4401 19.9219 14.4531L19.9024 14.4531C19.8894 14.4531 19.8698 14.4661 19.8438 14.4922C19.8308 14.5052 19.7852 14.5117 19.7071 14.5117C19.4336 14.6029 19.1732 14.7005 18.9258 14.8047L18.7696 14.8242L17.8711 15.1953C17.8451 15.1953 17.8125 15.2018 17.7735 15.2148C17.7474 15.2148 17.6823 15.2409 17.5782 15.293C17.5391 15.319 17.4935 15.3385 17.4414 15.3516C17.4024 15.3516 17.3633 15.3581 17.3243 15.3711C17.2982 15.3841 17.2657 15.4101 17.2266 15.4492C17.1485 15.4753 17.0704 15.5013 16.9922 15.5273C16.9271 15.5404 16.849 15.5664 16.7579 15.6055C16.7188 15.6445 16.6862 15.6706 16.6602 15.6836L16.5821 15.6836C16.5691 15.6836 16.5495 15.6901 16.5235 15.7031C16.5105 15.7031 16.4844 15.7226 16.4454 15.7617L16.1524 15.8398C16.1133 15.8789 16.0873 15.8984 16.0743 15.8984L15.9375 15.9375C15.625 16.0937 15.2995 16.237 14.961 16.3672L14.5118 16.543C14.4727 16.569 14.4336 16.595 14.3946 16.6211C14.3555 16.6341 14.3164 16.6471 14.2774 16.6601C14.2513 16.6732 14.2058 16.6927 14.1407 16.7187C14.1276 16.7187 14.1016 16.7383 14.0625 16.7773C13.7631 16.8945 13.4506 17.0247 13.125 17.168L13.086 17.207C13.086 17.22 13.0795 17.2266 13.0664 17.2266C12.9362 17.2917 12.793 17.3503 12.6368 17.4023L12.5586 17.4805L12.5 17.4805C12.487 17.4805 12.474 17.487 12.461 17.5L11.7969 17.832C11.4584 17.9753 11.1394 18.138 10.8399 18.3203C10.8138 18.3333 10.7813 18.3398 10.7422 18.3398C10.7162 18.3659 10.6771 18.3919 10.625 18.418C10.586 18.444 10.5469 18.47 10.5079 18.4961C10.4818 18.5091 10.4493 18.5221 10.4102 18.5351C10.3711 18.5482 10.3256 18.5677 10.2735 18.5937C10.1433 18.6719 9.99346 18.75 9.82426 18.8281C9.66797 18.9062 9.51172 18.9974 9.35547 19.1016C9.31641 19.1276 9.27084 19.1471 9.21875 19.1601C9.17969 19.1732 9.14063 19.1927 9.10157 19.2187L8.35938 19.6484C8.32032 19.6745 8.24219 19.707 8.125 19.7461C7.94271 19.8633 7.7474 19.9805 7.53907 20.0976C7.26563 20.2539 6.9987 20.4167 6.73828 20.5859L6.5625 20.6836C6.41927 20.7357 6.32813 20.7812 6.28907 20.8203C6.26302 20.8594 6.23698 20.8854 6.21094 20.8984C6.19792 20.8984 6.17839 20.9049 6.15235 20.918C6.13933 20.918 6.1198 20.931 6.09375 20.957C6.06771 20.9831 6.02214 21.0091 5.95704 21.0351L5.85938 21.1133C5.79427 21.1654 5.73568 21.1979 5.6836 21.2109L5.3711 21.3867C5.13672 21.556 4.47266 22.0052 3.37891 22.7344C3.30078 22.7864 3.21615 22.8581 3.125 22.9492L2.07032 23.7305C2.00521 23.7825 1.88802 23.8932 1.71875 24.0625C1.58855 24.1667 1.47136 24.2708 1.36719 24.375C1.08073 24.6614 0.859376 24.9349 0.703125 25.1953C0.625 25.3125 0.585937 25.4101 0.585937 25.4883L0.585937 25.5469C0.625 25.6641 0.722656 25.7617 0.878906 25.8398L0.937496 25.8594C1.1198 25.9505 1.31511 26.0156 1.52344 26.0547C1.66667 26.1068 1.8099 26.1328 1.95313 26.1328L2.10938 26.1523C2.25261 26.1914 2.40886 26.2174 2.57813 26.2305C2.7474 26.2305 2.90365 26.25 3.04688 26.2891L3.32032 26.3086L3.4375 26.2891L3.75 26.3281C3.86719 26.3411 4.04297 26.3476 4.27735 26.3476L4.66797 26.3867L5.3125 26.3867C5.40365 26.3997 5.51433 26.4062 5.64454 26.4062C5.78776 26.4062 5.92448 26.4128 6.05469 26.4258C6.47136 26.4388 6.89454 26.4453 7.32422 26.4453C7.41537 26.4583 7.51954 26.4648 7.63672 26.4648L9.99996 26.4648C10.0782 26.4779 10.1628 26.4844 10.254 26.4844L10.8594 26.4648C10.9506 26.4779 11.862 26.4844 13.5938 26.4844L13.7305 26.4844L13.9649 26.4648C14.043 26.4648 14.0886 26.4713 14.1016 26.4844L14.2188 26.4648L14.4727 26.4648C14.4987 26.4779 14.5313 26.4844 14.5704 26.4844ZM31.3086 26.2695L31.8946 26.2305L32.1485 26.25C32.3047 26.237 32.9232 26.2305 34.004 26.2305C34.1732 26.2305 34.3295 26.2239 34.4727 26.2109L34.8438 26.2109C35.0391 26.2109 35.1954 26.2044 35.3125 26.1914C35.586 26.1914 35.7813 26.1849 35.8985 26.1719L36.4063 26.1719C36.4974 26.1588 36.6342 26.1523 36.8164 26.1523L38.0079 26.1523C38.112 26.1393 38.2422 26.1328 38.3985 26.1328L38.8868 26.1328C39.03 26.1328 39.1667 26.1263 39.2969 26.1133L39.4922 26.1133C39.5313 26.1003 39.7461 26.0937 40.1368 26.0937C40.3451 26.0937 40.4883 26.0872 40.5664 26.0742C40.6316 26.0872 40.7162 26.0937 40.8204 26.0937C40.9245 26.0937 41.0157 26.0872 41.0938 26.0742C41.1198 25.9049 41.1394 25.7357 41.1524 25.5664C41.1654 25.3841 41.1849 25.2083 41.211 25.0391L41.211 24.8828C41.224 24.8568 41.2305 24.8242 41.2305 24.7851L41.2305 24.6875C41.2435 24.6614 41.2631 24.5378 41.2891 24.3164L41.2891 23.7109L41.3282 22.832L41.2891 22.207L41.3086 22.0898C41.2956 22.0378 41.2891 21.9922 41.2891 21.9531C41.2891 21.901 41.2826 21.862 41.2696 21.8359L41.2696 21.6406L41.211 21.0937C41.211 20.9766 41.198 20.8659 41.1719 20.7617L41.1719 20.625L41.1524 20.4883C41.1133 20.332 41.0808 20.1628 41.0547 19.9805C41.0287 19.7851 40.9961 19.5898 40.9571 19.3945L40.7422 18.6914L40.7422 18.5937L40.2735 17.4609L40.254 17.4219C40.1888 17.2396 40.1107 17.0703 40.0196 16.9141L39.961 16.7969C39.7787 16.4844 39.5834 16.1719 39.375 15.8594C39.336 15.8463 39.2058 15.6836 38.9844 15.3711L38.9649 15.3711C38.9649 15.3581 38.9323 15.3255 38.8672 15.2734C38.737 15.0911 38.5873 14.9414 38.418 14.8242C38.392 14.7851 38.3659 14.7526 38.3399 14.7266C38.3269 14.7005 38.2292 14.6224 38.0469 14.4922L37.9688 14.4141L37.7344 14.2383C37.487 14.069 37.3373 13.9713 37.2852 13.9453C37.2461 13.9193 37.2071 13.8932 37.168 13.8672C37.129 13.8281 37.1029 13.8086 37.0899 13.8086L36.7383 13.6328C36.6862 13.5807 36.6276 13.5547 36.5625 13.5547C36.5105 13.6198 36.4649 13.6914 36.4258 13.7695C36.2696 14.0039 36.1459 14.2187 36.0547 14.4141C35.9896 14.4792 35.9441 14.5378 35.918 14.5898L35.5274 15.293C35.5013 15.332 35.4818 15.3711 35.4688 15.4101C35.4558 15.4492 35.4297 15.5013 35.3907 15.5664C35.3516 15.6185 35.3125 15.6836 35.2735 15.7617C35.2344 15.8398 35.1954 15.9114 35.1563 15.9766C35.1172 16.0286 35.0912 16.0807 35.0782 16.1328C35.0131 16.2239 34.974 16.2956 34.961 16.3476C34.8308 16.5299 34.7592 16.6471 34.7461 16.6992C34.7461 16.7513 34.7331 16.7969 34.7071 16.8359C34.4336 17.3047 34.1797 17.7995 33.9454 18.3203C33.9193 18.3724 33.8803 18.4375 33.8282 18.5156C33.7891 18.5807 33.7631 18.6393 33.75 18.6914C33.737 18.7435 33.6719 18.8867 33.5547 19.1211C33.4506 19.2643 33.3399 19.4987 33.2227 19.8242C33.0404 20.2539 32.8451 20.6771 32.6368 21.0937L32.5196 21.4062L32.0899 22.4219L31.8555 23.0078C31.517 23.8542 31.198 24.7266 30.8985 25.625L30.7618 26.0351C30.7357 26.1133 30.7162 26.1654 30.7032 26.1914L30.7032 26.25C30.7162 26.263 30.8529 26.2695 31.1133 26.2695C31.1263 26.2565 31.1719 26.25 31.25 26.25L31.3086 26.2695ZM60.6836 26.1719C60.3451 26.4193 60.0586 26.5755 59.8243 26.6406L59.8047 26.6211C59.8178 26.582 59.8763 26.5234 59.9805 26.4453L60.0782 26.3672C60.4297 26.0937 60.6967 25.957 60.879 25.957L60.8985 25.9766C60.8855 26.0417 60.8334 26.1003 60.7422 26.1523L60.6836 26.1719ZM31.4454 45.7031C31.9532 45.7031 32.4154 45.625 32.8321 45.4687C32.8711 45.4557 32.9167 45.4492 32.9688 45.4492L33.7305 45.1367L33.8282 45.0586C33.9844 45.0195 34.0951 44.9739 34.1602 44.9219L34.668 44.6289L35.4102 44.1797L35.6055 44.0039C36.0222 43.7305 36.3542 43.4766 36.6016 43.2422C36.6928 43.1771 36.7774 43.1055 36.8555 43.0273C36.9336 42.9622 37.0183 42.8971 37.1094 42.832C37.1224 42.819 37.129 42.806 37.129 42.793C37.142 42.793 37.1485 42.7864 37.1485 42.7734C37.1875 42.7213 37.2201 42.6888 37.2461 42.6758C37.2722 42.6758 37.2852 42.6693 37.2852 42.6562C37.3894 42.5521 37.5131 42.4414 37.6563 42.3242L37.7344 42.2266C37.8125 42.1745 37.8776 42.1094 37.9297 42.0312L38.0079 41.9531C38.086 41.901 38.2097 41.7773 38.379 41.582C38.392 41.569 38.4115 41.556 38.4375 41.543C38.4636 41.5299 38.4831 41.5104 38.4961 41.4844C38.6394 41.3021 38.7956 41.1263 38.9649 40.957C39.1342 40.8008 39.2904 40.625 39.4336 40.4297C39.5378 40.3255 39.668 40.1823 39.8243 40C39.8894 39.9349 40.1498 39.6094 40.6055 39.0234C40.6185 38.9974 40.6316 38.9779 40.6446 38.9648C40.6706 38.9518 41.0157 38.4961 41.6797 37.5976C41.7188 37.5586 41.7579 37.5065 41.7969 37.4414C41.836 37.3893 41.8685 37.3372 41.8946 37.2851C41.9336 37.2331 41.9727 37.1745 42.0118 37.1094C42.9753 35.7552 43.8868 34.3555 44.7461 32.9101C44.8763 32.7148 45.0066 32.487 45.1368 32.2266C45.1758 32.1484 45.2214 32.0703 45.2735 31.9922C45.3256 31.9141 45.3711 31.8424 45.4102 31.7773C45.4883 31.6211 45.5469 31.5169 45.586 31.4648L46.0352 30.6445L46.543 29.707L47.0899 28.6914C47.0899 28.6393 47.1941 28.4245 47.4024 28.0469C47.4675 27.9297 47.5261 27.8125 47.5782 27.6953C47.6433 27.5781 47.7019 27.4609 47.754 27.3437C47.806 27.2266 47.8451 27.1419 47.8711 27.0898C47.9362 26.9857 47.9818 26.888 48.0079 26.7969C48.0339 26.7708 48.0534 26.7513 48.0664 26.7383C48.0795 26.7122 48.086 26.6732 48.086 26.6211C48.0599 26.6081 48.0404 26.6016 48.0274 26.6016C48.0274 26.5885 48.0079 26.582 47.9688 26.582C47.9297 26.582 47.8972 26.5885 47.8711 26.6016L47.4219 26.582L46.6407 26.582L45.7227 26.5625L45.625 26.582L45.4688 26.5625L45.1172 26.582C45.0261 26.569 44.9284 26.5625 44.8243 26.5625L42.8711 26.5625C42.7019 26.5625 42.6107 26.569 42.5977 26.582L42.5782 26.582C42.474 26.7773 42.3829 26.9857 42.3047 27.207L42.2071 27.4609C42.2071 27.4739 42.1875 27.5 42.1485 27.5391L42.1485 27.6562C42.1094 27.6953 42.0834 27.7213 42.0704 27.7344L42.0704 27.832C42.0313 27.8711 42.0053 27.8971 41.9922 27.9101L41.9922 27.9883C41.9922 28.0143 41.9792 28.0404 41.9532 28.0664C41.9401 28.0924 41.9271 28.1185 41.9141 28.1445L41.9141 28.2422C41.9011 28.2682 41.8816 28.2943 41.8555 28.3203C41.8425 28.3333 41.8034 28.431 41.7383 28.6133C41.6862 28.7825 41.6211 28.9583 41.543 29.1406L41.3282 29.8047C41.3151 29.8177 41.3086 29.8372 41.3086 29.8633C41.3086 29.9414 41.2891 30.0195 41.25 30.0976C41.198 30.3581 41.1654 30.4948 41.1524 30.5078C41.1524 30.5208 41.0873 30.7747 40.9571 31.2695C40.905 31.5039 40.8464 31.7253 40.7813 31.9336L40.7227 32.2851L40.3907 33.3984C40.1823 34.1667 39.9805 34.8177 39.7852 35.3516C39.6029 35.8854 39.4206 36.4128 39.2383 36.9336C39.1862 37.1029 39.1211 37.2656 39.043 37.4219L39.043 37.4805C39.03 37.5065 39.017 37.526 39.004 37.5391C38.9909 37.5521 38.9779 37.5716 38.9649 37.5976C38.9649 37.6237 38.9584 37.6497 38.9454 37.6758C38.9454 37.7669 38.8868 37.8841 38.7696 38.0273C38.7435 38.0534 38.724 38.0859 38.711 38.125C38.6459 38.3073 38.5092 38.3984 38.3008 38.3984C38.1316 38.3984 37.9948 38.3203 37.8907 38.1641C37.8516 38.0989 37.8321 38.0273 37.8321 37.9492C37.8321 37.8841 37.8646 37.7734 37.9297 37.6172C38.0079 37.4609 38.0534 37.3437 38.0664 37.2656C38.1185 37.1094 38.1771 36.9596 38.2422 36.8164C38.2422 36.7643 38.2487 36.7318 38.2618 36.7187C38.3008 36.6406 38.3204 36.595 38.3204 36.582L38.3204 36.5039C38.3334 36.4779 38.418 36.2825 38.5743 35.918C38.6003 35.7747 38.6329 35.6575 38.6719 35.5664C39.0756 34.4726 39.4401 33.3463 39.7657 32.1875C39.8438 31.875 39.9349 31.5625 40.0391 31.25L40.0782 30.9766C40.1433 30.7682 40.1954 30.5599 40.2344 30.3516C40.2865 30.1562 40.3386 29.9739 40.3907 29.8047L40.8008 27.9297L40.8008 27.7734L40.879 27.5L40.879 27.3828L40.9571 27.0703L40.9571 26.9141C40.9961 26.8359 41.0157 26.7253 41.0157 26.582L40.9375 26.5625L40.7227 26.582L40.7032 26.5625C40.6771 26.5755 40.5925 26.582 40.4493 26.582L39.1211 26.582C39.0691 26.595 39.004 26.6016 38.9258 26.6016C38.8347 26.6016 38.7566 26.595 38.6914 26.582L38.5743 26.6016L37.4219 26.6016C37.1615 26.6016 36.9922 26.6081 36.9141 26.6211C36.836 26.6211 36.7513 26.6146 36.6602 26.6016L36.504 26.6211L34.8243 26.6211C34.6941 26.6211 34.5899 26.6276 34.5118 26.6406C34.4467 26.6406 34.3816 26.6341 34.3164 26.6211L34.2774 26.6406L33.7891 26.6406C33.6849 26.6406 33.5873 26.6471 33.4961 26.6601L33.3594 26.6406L33.125 26.6601L33.0664 26.6406C33.0144 26.6406 32.9688 26.6536 32.9297 26.6797L32.9102 26.6797C32.8451 26.6797 32.7995 26.6732 32.7735 26.6601L32.7149 26.6601C32.7019 26.6732 32.5782 26.6797 32.3438 26.6797C31.9792 26.6927 31.556 26.6992 31.0743 26.6992L30.879 26.6992C30.7618 26.6992 30.6511 26.7057 30.5469 26.7187L30.4688 26.9531C30.4167 27.1484 30.3516 27.3437 30.2735 27.5391C30.2735 27.6042 30.267 27.6497 30.254 27.6758L29.9414 28.7305L29.6094 30.0976C29.5573 30.293 29.5118 30.4883 29.4727 30.6836C29.4336 30.8789 29.3881 31.0612 29.336 31.2305C29.3099 31.3346 29.2904 31.4388 29.2774 31.543C29.2644 31.6471 29.2383 31.7578 29.1993 31.875L29.1993 31.9922C29.1732 32.0573 29.1537 32.1224 29.1407 32.1875C29.1276 32.2526 29.1146 32.3112 29.1016 32.3633C29.0886 32.4154 29.0821 32.4544 29.0821 32.4805C29.0821 32.5065 29.0495 32.7148 28.9844 33.1055C28.9323 33.3919 28.8998 33.5677 28.8868 33.6328C28.8737 33.7109 28.8607 33.7891 28.8477 33.8672C28.8477 33.9583 28.8347 34.0364 28.8086 34.1016C28.7956 34.1797 28.7891 34.2513 28.7891 34.3164C28.75 34.4466 28.724 34.5703 28.711 34.6875C28.698 34.8177 28.6849 34.9414 28.6719 35.0586C28.6589 35.1758 28.6459 35.306 28.6329 35.4492C28.6329 35.5924 28.6198 35.7292 28.5938 35.8594L28.5938 35.9961C28.5808 36.0482 28.5743 36.1003 28.5743 36.1523C28.5743 36.2044 28.5678 36.2565 28.5547 36.3086C28.5417 36.3737 28.5352 36.4388 28.5352 36.5039C28.5352 36.582 28.5287 36.6536 28.5157 36.7187C28.5026 36.7969 28.4961 36.8685 28.4961 36.9336C28.4961 37.0117 28.4896 37.0833 28.4766 37.1484C28.4766 37.3047 28.4701 37.4544 28.4571 37.5976C28.4571 37.8581 28.4506 38.0273 28.4375 38.1055C28.4245 38.1315 28.418 38.1836 28.418 38.2617L28.4375 38.3008L28.4375 38.5156C28.4375 38.5937 28.431 38.6654 28.418 38.7305L28.418 39.3555L28.4375 40.3711L28.4571 40.7617C28.4961 40.918 28.5157 41.0807 28.5157 41.25C28.5287 41.4323 28.5482 41.6016 28.5743 41.7578L28.5743 41.8555C28.6003 41.9726 28.6198 42.0898 28.6329 42.207C28.6459 42.3372 28.6719 42.4609 28.711 42.5781C28.8672 43.2682 29.0821 43.8737 29.3555 44.3945C29.629 44.9154 30.0651 45.306 30.6641 45.5664C30.8855 45.6575 31.1459 45.7031 31.4454 45.7031ZM41.875 27.0898C41.8881 27.0638 41.8946 27.0378 41.8946 27.0117C41.8946 26.9857 41.9076 26.9661 41.9336 26.9531C41.9597 26.9401 41.9727 26.9271 41.9727 26.9141C41.9857 26.888 41.9922 26.862 41.9922 26.8359C41.9922 26.8099 41.9987 26.7838 42.0118 26.7578C42.0378 26.7187 42.0573 26.6601 42.0704 26.582L41.9532 26.5625L41.9336 26.5625L41.875 26.7773C41.849 26.8945 41.836 26.9922 41.836 27.0703L41.875 27.0898Z" fill-rule="evenodd"  fill="currentColor" >
</path>
</svg>
