<svg width="1em" height="1em" viewBox="0 0 27 27" fill="none" xmlns="http://www.w3.org/2000/svg">
<path d="M23.076 4.18401C24.732 5.86401 25.848 7.83201 26.424 10.088C27.024 12.32 27.024 14.564 26.424 16.82C25.848 19.076 24.732 21.032 23.076 22.688C21.804 23.936 20.352 24.884 18.72 25.532C17.112 26.18 15.48 26.504 13.824 26.504C12.168 26.504 10.524 26.18 8.89197 25.532C7.25997 24.884 5.81997 23.936 4.57197 22.688C2.89197 21.032 1.75197 19.076 1.15197 16.82C0.575971 14.564 0.575971 12.32 1.15197 10.088C1.75197 7.83201 2.89197 5.86401 4.57197 4.18401C5.81997 2.93601 7.25997 1.98801 8.89197 1.34001C10.524 0.692011 12.168 0.368011 13.824 0.368011C15.48 0.368011 17.112 0.692011 18.72 1.34001C20.352 1.98801 21.804 2.93601 23.076 4.18401ZM22.716 22.364C24.06 20.996 24.336 18.98 23.544 16.316C22.776 13.628 21.156 11.048 18.684 8.57601C16.212 6.10401 13.632 4.48401 10.944 3.71601C8.25597 2.92401 6.344 3.68 5 5C3.656 6.344 3.27597 7.88001 4.06797 10.592C4.85997 13.28 6.47997 15.86 8.92797 18.332C11.376 20.804 13.98 22.4 16.668 23.192C20 24.1738 21.372 23.684 22.716 22.364Z" fill="currentColor"/>
</svg>
